<svg width="750" height="500" viewBox="0 0 750 500" fill="none" xmlns="http://www.w3.org/2000/svg">
<g clip-path="url(#clip0_24_14)">
<path d="M348 146V107H303V0" stroke="#FDB913" stroke-opacity="0.2" stroke-width="2" stroke-miterlimit="10"/>
<path d="M353.8 151.393C353.8 154.331 351.419 156.711 348.482 156.711C345.545 156.711 343.164 154.33 343.164 151.393C343.164 148.456 345.545 146.075 348.482 146.075C351.419 146.075 353.8 148.456 353.8 151.393Z" stroke="#FDB913" stroke-opacity="0.2" stroke-width="1.5" stroke-miterlimit="10"/>
<path d="M289.8 167.393C289.8 170.331 287.419 172.711 284.482 172.711C281.545 172.711 279.164 170.33 279.164 167.393C279.164 164.456 281.545 162.075 284.482 162.075C287.419 162.075 289.8 164.456 289.8 167.393Z" stroke="#FDB913" stroke-opacity="0.2" stroke-width="1.5" stroke-miterlimit="10"/>
<path d="M280.282 164.345L144.105 39H53V0" stroke="#FDB913" stroke-opacity="0.2" stroke-width="2" stroke-miterlimit="10"/>
<path d="M256.8 235.393C256.8 238.331 254.419 240.711 251.482 240.711C248.545 240.711 246.164 238.33 246.164 235.393C246.164 232.456 248.545 230.075 251.482 230.075C254.419 230.075 256.8 232.456 256.8 235.393Z" stroke="#FDB913" stroke-opacity="0.2" stroke-width="1.5" stroke-miterlimit="10"/>
<path d="M247.582 232.184L152.065 136H1" stroke="#FDB913" stroke-opacity="0.2" stroke-width="2" stroke-miterlimit="10"/>
<path d="M260.8 359.394C260.8 362.331 258.419 364.711 255.482 364.711C252.545 364.711 250.164 362.33 250.164 359.394C250.164 356.456 252.545 354.076 255.482 354.076C258.419 354.076 260.8 356.456 260.8 359.394Z" stroke="#FDB913" stroke-opacity="0.5" stroke-width="1.5" stroke-miterlimit="10"/>
<path d="M255 354V316H138V168H245V0" stroke="#FDB913" stroke-opacity="0.5" stroke-width="2" stroke-miterlimit="10"/>
<path d="M268 224H200V156H91V68H0" stroke="#FDB913" stroke-opacity="0.5" stroke-width="2" stroke-miterlimit="10"/>
<path d="M278.8 224.393C278.8 227.331 276.419 229.711 273.482 229.711C270.545 229.711 268.164 227.33 268.164 224.393C268.164 221.456 270.545 219.075 273.482 219.075C276.419 219.075 278.8 221.456 278.8 224.393Z" stroke="#FDB913" stroke-opacity="0.5" stroke-width="1.5" stroke-miterlimit="10"/>
<path d="M251.473 197.667L151.732 97H0" stroke="#FDB913" stroke-opacity="0.5" stroke-width="2" stroke-miterlimit="10"/>
<path d="M260.8 201.393C260.8 204.331 258.419 206.711 255.482 206.711C252.545 206.711 250.164 204.33 250.164 201.393C250.164 198.456 252.545 196.075 255.482 196.075C258.419 196.075 260.8 198.456 260.8 201.393Z" stroke="#FDB913" stroke-opacity="0.5" stroke-width="1.5" stroke-miterlimit="10"/>
<path d="M271 106H184V0" stroke="#FDB913" stroke-opacity="0.5" stroke-width="2" stroke-miterlimit="10"/>
<path d="M281.8 106.393C281.8 109.331 279.419 111.711 276.482 111.711C273.545 111.711 271.164 109.33 271.164 106.393C271.164 103.456 273.545 101.075 276.482 101.075C279.419 101.075 281.8 103.456 281.8 106.393Z" stroke="#FDB913" stroke-opacity="0.5" stroke-width="1.5" stroke-miterlimit="10"/>
<path d="M224 139V68H110V0" stroke="#FDB913" stroke-opacity="0.5" stroke-width="2" stroke-miterlimit="10"/>
<path d="M229.8 144.393C229.8 147.331 227.419 149.711 224.482 149.711C221.545 149.711 219.164 147.33 219.164 144.393C219.164 141.456 221.545 139.075 224.482 139.075C227.419 139.075 229.8 141.456 229.8 144.393Z" stroke="#FDB913" stroke-opacity="0.5" stroke-width="1.5" stroke-miterlimit="10"/>
<path d="M0 232H66V116H134" stroke="#FDB913" stroke-opacity="0.5" stroke-width="2" stroke-miterlimit="10"/>
<path d="M144.8 116.393C144.8 119.331 142.419 121.711 139.482 121.711C136.545 121.711 134.164 119.33 134.164 116.393C134.164 113.456 136.545 111.075 139.482 111.075C142.419 111.075 144.8 113.456 144.8 116.393Z" stroke="#FDB913" stroke-opacity="0.5" stroke-width="1.5" stroke-miterlimit="10"/>
<path d="M0 166H43" stroke="#FDB913" stroke-opacity="0.5" stroke-width="2" stroke-miterlimit="10"/>
<path d="M53.8 165.393C53.8 168.331 51.419 170.711 48.482 170.711C45.545 170.711 43.164 168.33 43.164 165.393C43.164 162.456 45.545 160.075 48.482 160.075C51.419 160.075 53.8 162.456 53.8 165.393Z" stroke="#FDB913" stroke-opacity="0.5" stroke-width="1.5" stroke-miterlimit="10"/>
<path d="M0.39801 213.068L39.065 195H149.065L180.94 226.749" stroke="#FDB913" stroke-opacity="0.5" stroke-width="2" stroke-miterlimit="10"/>
<path d="M189.8 230.393C189.8 233.331 187.419 235.711 184.482 235.711C181.545 235.711 179.164 233.33 179.164 230.393C179.164 227.456 181.545 225.075 184.482 225.075C187.419 225.075 189.8 227.456 189.8 230.393Z" stroke="#FDB913" stroke-opacity="0.5" stroke-width="1.5" stroke-miterlimit="10"/>
<path d="M348 355V395H303V500" stroke="#FDB913" stroke-opacity="0.2" stroke-width="2" stroke-miterlimit="10"/>
<path d="M353.8 350.754C353.8 347.818 351.419 345.437 348.482 345.437C345.545 345.437 343.164 347.818 343.164 350.754C343.164 353.692 345.545 356.072 348.482 356.072C351.419 356.072 353.8 353.691 353.8 350.754Z" stroke="#FDB913" stroke-opacity="0.2" stroke-width="1.5" stroke-miterlimit="10"/>
<path d="M289.8 334.754C289.8 331.818 287.419 329.437 284.482 329.437C281.545 329.437 279.164 331.818 279.164 334.754C279.164 337.692 281.545 340.072 284.482 340.072C287.419 340.072 289.8 337.691 289.8 334.754Z" stroke="#FDB913" stroke-opacity="0.2" stroke-width="1.5" stroke-miterlimit="10"/>
<path d="M280.282 337.155L144.105 463H53V500" stroke="#FDB913" stroke-opacity="0.2" stroke-width="2" stroke-miterlimit="10"/>
<path d="M256.8 266.754C256.8 263.818 254.419 261.437 251.482 261.437C248.545 261.437 246.164 263.818 246.164 266.754C246.164 269.692 248.545 272.072 251.482 272.072C254.419 272.072 256.8 269.691 256.8 266.754Z" stroke="#FDB913" stroke-opacity="0.2" stroke-width="1.5" stroke-miterlimit="10"/>
<path d="M247.582 269.815L152.065 366H1" stroke="#FDB913" stroke-opacity="0.2" stroke-width="2" stroke-miterlimit="10"/>
<path d="M260.8 134.754C260.8 131.817 258.419 129.436 255.482 129.436C252.545 129.436 250.164 131.817 250.164 134.754C250.164 137.691 252.545 140.072 255.482 140.072C258.419 140.072 260.8 137.691 260.8 134.754Z" stroke="#FDB913" stroke-opacity="0.5" stroke-width="1.5" stroke-miterlimit="10"/>
<path d="M255 139V178H138V325H245V500" stroke="#FDB913" stroke-opacity="0.5" stroke-width="2" stroke-miterlimit="10"/>
<path d="M268 278H200V346H91V434H0" stroke="#FDB913" stroke-opacity="0.5" stroke-width="2" stroke-miterlimit="10"/>
<path d="M278.8 277.754C278.8 274.818 276.419 272.437 273.482 272.437C270.545 272.437 268.164 274.818 268.164 277.754C268.164 280.692 270.545 283.072 273.482 283.072C276.419 283.072 278.8 280.691 278.8 277.754Z" stroke="#FDB913" stroke-opacity="0.5" stroke-width="1.5" stroke-miterlimit="10"/>
<path d="M251.473 304.333L151.732 405H0" stroke="#FDB913" stroke-opacity="0.5" stroke-width="2" stroke-miterlimit="10"/>
<path d="M260.8 300.754C260.8 297.818 258.419 295.437 255.482 295.437C252.545 295.437 250.164 297.818 250.164 300.754C250.164 303.692 252.545 306.072 255.482 306.072C258.419 306.072 260.8 303.691 260.8 300.754Z" stroke="#FDB913" stroke-opacity="0.5" stroke-width="1.5" stroke-miterlimit="10"/>
<path d="M271 396H184V500" stroke="#FDB913" stroke-opacity="0.5" stroke-width="2" stroke-miterlimit="10"/>
<path d="M281.8 395.754C281.8 392.818 279.419 390.437 276.482 390.437C273.545 390.437 271.164 392.818 271.164 395.754C271.164 398.692 273.545 401.072 276.482 401.072C279.419 401.072 281.8 398.691 281.8 395.754Z" stroke="#FDB913" stroke-opacity="0.5" stroke-width="1.5" stroke-miterlimit="10"/>
<path d="M224 362V434H110V500" stroke="#FDB913" stroke-opacity="0.5" stroke-width="2" stroke-miterlimit="10"/>
<path d="M229.8 357.754C229.8 354.818 227.419 352.437 224.482 352.437C221.545 352.437 219.164 354.818 219.164 357.754C219.164 360.692 221.545 363.072 224.482 363.072C227.419 363.072 229.8 360.691 229.8 357.754Z" stroke="#FDB913" stroke-opacity="0.5" stroke-width="1.5" stroke-miterlimit="10"/>
<path d="M0 270H66V386H134" stroke="#FDB913" stroke-opacity="0.5" stroke-width="2" stroke-miterlimit="10"/>
<path d="M144.8 385.754C144.8 382.818 142.419 380.437 139.482 380.437C136.545 380.437 134.164 382.818 134.164 385.754C134.164 388.692 136.545 391.072 139.482 391.072C142.419 391.072 144.8 388.691 144.8 385.754Z" stroke="#FDB913" stroke-opacity="0.5" stroke-width="1.5" stroke-miterlimit="10"/>
<path d="M0 336H43" stroke="#FDB913" stroke-opacity="0.5" stroke-width="2" stroke-miterlimit="10"/>
<path d="M53.8 336.754C53.8 333.818 51.419 331.437 48.482 331.437C45.545 331.437 43.164 333.818 43.164 336.754C43.164 339.692 45.545 342.072 48.482 342.072C51.419 342.072 53.8 339.691 53.8 336.754Z" stroke="#FDB913" stroke-opacity="0.5" stroke-width="1.5" stroke-miterlimit="10"/>
<path d="M0.39801 289.006L39.065 307H149.065L180.94 275.287" stroke="#FDB913" stroke-opacity="0.5" stroke-width="2" stroke-miterlimit="10"/>
<path d="M189.8 271.754C189.8 268.818 187.419 266.437 184.482 266.437C181.545 266.437 179.164 268.818 179.164 271.754C179.164 274.692 181.545 277.072 184.482 277.072C187.419 277.072 189.8 274.691 189.8 271.754Z" stroke="#FDB913" stroke-opacity="0.5" stroke-width="1.5" stroke-miterlimit="10"/>
<path d="M400 146V107H445V0" stroke="#FDB913" stroke-opacity="0.2" stroke-width="2" stroke-miterlimit="10"/>
<path d="M395.065 151.393C395.065 154.331 397.446 156.711 400.383 156.711C403.319 156.711 405.701 154.33 405.701 151.393C405.701 148.456 403.319 146.075 400.383 146.075C397.446 146.075 395.065 148.456 395.065 151.393Z" stroke="#FDB913" stroke-opacity="0.2" stroke-width="1.5" stroke-miterlimit="10"/>
<path d="M459.065 167.393C459.065 170.331 461.446 172.711 464.383 172.711C467.32 172.711 469.701 170.33 469.701 167.393C469.701 164.456 467.319 162.075 464.383 162.075C461.446 162.075 459.065 164.456 459.065 167.393Z" stroke="#FDB913" stroke-opacity="0.2" stroke-width="1.5" stroke-miterlimit="10"/>
<path d="M468.149 164.345L604.76 39H695V0" stroke="#FDB913" stroke-opacity="0.2" stroke-width="2" stroke-miterlimit="10"/>
<path d="M492.065 235.393C492.065 238.331 494.446 240.711 497.383 240.711C500.32 240.711 502.701 238.33 502.701 235.393C502.701 232.456 500.319 230.075 497.383 230.075C494.446 230.075 492.065 232.456 492.065 235.393Z" stroke="#FDB913" stroke-opacity="0.2" stroke-width="1.5" stroke-miterlimit="10"/>
<path d="M501.351 232.184L596.8 136H748" stroke="#FDB913" stroke-opacity="0.2" stroke-width="2" stroke-miterlimit="10"/>
<path d="M488.065 367.394C488.065 370.331 490.446 372.711 493.383 372.711C496.32 372.711 498.701 370.33 498.701 367.394C498.701 364.456 496.319 362.076 493.383 362.076C490.446 362.075 488.065 364.456 488.065 367.394Z" stroke="#FDB913" stroke-opacity="0.5" stroke-width="1.5" stroke-miterlimit="10"/>
<path d="M493 362V324H610V177H503V0" stroke="#FDB913" stroke-opacity="0.5" stroke-width="2" stroke-miterlimit="10"/>
<path d="M481 224H548V156H657V68H749" stroke="#FDB913" stroke-opacity="0.5" stroke-width="2" stroke-miterlimit="10"/>
<path d="M470.065 224.393C470.065 227.331 472.446 229.711 475.383 229.711C478.32 229.711 480.701 227.33 480.701 224.393C480.701 221.456 478.319 219.075 475.383 219.075C472.446 219.075 470.065 221.456 470.065 224.393Z" stroke="#FDB913" stroke-opacity="0.5" stroke-width="1.5" stroke-miterlimit="10"/>
<path d="M497.46 197.667L597.133 97H749" stroke="#FDB913" stroke-opacity="0.5" stroke-width="2" stroke-miterlimit="10"/>
<path d="M488.065 201.393C488.065 204.331 490.446 206.711 493.383 206.711C496.32 206.711 498.701 204.33 498.701 201.393C498.701 198.456 496.319 196.075 493.383 196.075C490.446 196.075 488.065 198.456 488.065 201.393Z" stroke="#FDB913" stroke-opacity="0.5" stroke-width="1.5" stroke-miterlimit="10"/>
<path d="M478 106H564V0" stroke="#FDB913" stroke-opacity="0.5" stroke-width="2" stroke-miterlimit="10"/>
<path d="M467.065 106.393C467.065 109.331 469.446 111.711 472.383 111.711C475.32 111.711 477.701 109.33 477.701 106.393C477.701 103.456 475.319 101.075 472.383 101.075C469.446 101.075 467.065 103.456 467.065 106.393Z" stroke="#FDB913" stroke-opacity="0.5" stroke-width="1.5" stroke-miterlimit="10"/>
<path d="M524 139V68H638V0" stroke="#FDB913" stroke-opacity="0.5" stroke-width="2" stroke-miterlimit="10"/>
<path d="M519.065 144.393C519.065 147.331 521.446 149.711 524.383 149.711C527.32 149.711 529.701 147.33 529.701 144.393C529.701 141.456 527.319 139.075 524.383 139.075C521.446 139.075 519.065 141.456 519.065 144.393Z" stroke="#FDB913" stroke-opacity="0.5" stroke-width="1.5" stroke-miterlimit="10"/>
<path d="M749 232H682V116H615" stroke="#FDB913" stroke-opacity="0.5" stroke-width="2" stroke-miterlimit="10"/>
<path d="M604.065 116.393C604.065 119.331 606.446 121.711 609.383 121.711C612.32 121.711 614.701 119.33 614.701 116.393C614.701 113.456 612.319 111.075 609.383 111.075C606.446 111.075 604.065 113.456 604.065 116.393Z" stroke="#FDB913" stroke-opacity="0.5" stroke-width="1.5" stroke-miterlimit="10"/>
<path d="M749 166H706" stroke="#FDB913" stroke-opacity="0.5" stroke-width="2" stroke-miterlimit="10"/>
<path d="M695.065 165.393C695.065 168.331 697.446 170.711 700.383 170.711C703.32 170.711 705.701 168.33 705.701 165.393C705.701 162.456 703.319 160.075 700.383 160.075C697.446 160.075 695.065 162.456 695.065 165.393Z" stroke="#FDB913" stroke-opacity="0.5" stroke-width="1.5" stroke-miterlimit="10"/>
<path d="M748.466 213.068L709.8 195H599.8L567.925 226.749" stroke="#FDB913" stroke-opacity="0.5" stroke-width="2" stroke-miterlimit="10"/>
<path d="M559.065 230.393C559.065 233.331 561.446 235.711 564.383 235.711C567.32 235.711 569.701 233.33 569.701 230.393C569.701 227.456 567.319 225.075 564.383 225.075C561.446 225.075 559.065 227.456 559.065 230.393Z" stroke="#FDB913" stroke-opacity="0.5" stroke-width="1.5" stroke-miterlimit="10"/>
<path d="M400 355V395H445V500" stroke="#FDB913" stroke-opacity="0.2" stroke-width="2" stroke-miterlimit="10"/>
<path d="M395.065 350.754C395.065 347.818 397.446 345.437 400.383 345.437C403.319 345.437 405.701 347.818 405.701 350.754C405.701 353.692 403.319 356.072 400.383 356.072C397.446 356.072 395.065 353.691 395.065 350.754Z" stroke="#FDB913" stroke-opacity="0.2" stroke-width="1.5" stroke-miterlimit="10"/>
<path d="M459.065 334.754C459.065 331.818 461.446 329.437 464.383 329.437C467.32 329.437 469.701 331.818 469.701 334.754C469.701 337.692 467.319 340.072 464.383 340.072C461.446 340.072 459.065 337.691 459.065 334.754Z" stroke="#FDB913" stroke-opacity="0.2" stroke-width="1.5" stroke-miterlimit="10"/>
<path d="M468.149 337.155L604.76 463H695V500" stroke="#FDB913" stroke-opacity="0.2" stroke-width="2" stroke-miterlimit="10"/>
<path d="M492.065 266.754C492.065 263.818 494.446 261.437 497.383 261.437C500.32 261.437 502.701 263.818 502.701 266.754C502.701 269.692 500.319 272.072 497.383 272.072C494.446 272.072 492.065 269.691 492.065 266.754Z" stroke="#FDB913" stroke-opacity="0.2" stroke-width="1.5" stroke-miterlimit="10"/>
<path d="M501.351 269.815L596.8 366H748" stroke="#FDB913" stroke-opacity="0.2" stroke-width="2" stroke-miterlimit="10"/>
<path d="M488.065 123.754C488.065 120.817 490.446 118.436 493.383 118.436C496.32 118.436 498.701 120.817 498.701 123.754C498.701 126.691 496.319 129.072 493.383 129.072C490.446 129.072 488.065 126.691 488.065 123.754Z" stroke="#FDB913" stroke-opacity="0.5" stroke-width="1.5" stroke-miterlimit="10"/>
<path d="M493 129V167H610V335H503V500" stroke="#FDB913" stroke-opacity="0.5" stroke-width="2" stroke-miterlimit="10"/>
<path d="M481 278H548V346H657V434H749" stroke="#FDB913" stroke-opacity="0.5" stroke-width="2" stroke-miterlimit="10"/>
<path d="M470.065 277.754C470.065 274.818 472.446 272.437 475.383 272.437C478.32 272.437 480.701 274.818 480.701 277.754C480.701 280.692 478.319 283.072 475.383 283.072C472.446 283.072 470.065 280.691 470.065 277.754Z" stroke="#FDB913" stroke-opacity="0.5" stroke-width="1.5" stroke-miterlimit="10"/>
<path d="M497.46 304.333L597.133 405H749" stroke="#FDB913" stroke-opacity="0.5" stroke-width="2" stroke-miterlimit="10"/>
<path d="M488.065 300.754C488.065 297.818 490.446 295.437 493.383 295.437C496.32 295.437 498.701 297.818 498.701 300.754C498.701 303.692 496.319 306.072 493.383 306.072C490.446 306.072 488.065 303.691 488.065 300.754Z" stroke="#FDB913" stroke-opacity="0.5" stroke-width="1.5" stroke-miterlimit="10"/>
<path d="M478 396H564V500" stroke="#FDB913" stroke-opacity="0.5" stroke-width="2" stroke-miterlimit="10"/>
<path d="M467.065 395.754C467.065 392.818 469.446 390.437 472.383 390.437C475.32 390.437 477.701 392.818 477.701 395.754C477.701 398.692 475.319 401.072 472.383 401.072C469.446 401.072 467.065 398.691 467.065 395.754Z" stroke="#FDB913" stroke-opacity="0.5" stroke-width="1.5" stroke-miterlimit="10"/>
<path d="M524 362V434H638V500" stroke="#FDB913" stroke-opacity="0.5" stroke-width="2" stroke-miterlimit="10"/>
<path d="M519.065 357.754C519.065 354.818 521.446 352.437 524.383 352.437C527.32 352.437 529.701 354.818 529.701 357.754C529.701 360.692 527.319 363.072 524.383 363.072C521.446 363.072 519.065 360.691 519.065 357.754Z" stroke="#FDB913" stroke-opacity="0.5" stroke-width="1.5" stroke-miterlimit="10"/>
<path d="M749 270H682V386H615" stroke="#FDB913" stroke-opacity="0.5" stroke-width="2" stroke-miterlimit="10"/>
<path d="M604.065 385.754C604.065 382.818 606.446 380.437 609.383 380.437C612.32 380.437 614.701 382.818 614.701 385.754C614.701 388.692 612.319 391.072 609.383 391.072C606.446 391.072 604.065 388.691 604.065 385.754Z" stroke="#FDB913" stroke-opacity="0.5" stroke-width="1.5" stroke-miterlimit="10"/>
<path d="M749 336H706" stroke="#FDB913" stroke-opacity="0.5" stroke-width="2" stroke-miterlimit="10"/>
<path d="M695.065 336.754C695.065 333.818 697.446 331.437 700.383 331.437C703.32 331.437 705.701 333.818 705.701 336.754C705.701 339.692 703.319 342.072 700.383 342.072C697.446 342.072 695.065 339.691 695.065 336.754Z" stroke="#FDB913" stroke-opacity="0.5" stroke-width="1.5" stroke-miterlimit="10"/>
<path d="M748.466 289.006L709.8 307H599.8L567.925 275.287" stroke="#FDB913" stroke-opacity="0.5" stroke-width="2" stroke-miterlimit="10"/>
<path d="M559.065 271.754C559.065 268.818 561.446 266.437 564.383 266.437C567.32 266.437 569.701 268.818 569.701 271.754C569.701 274.692 567.319 277.072 564.383 277.072C561.446 277.072 559.065 274.691 559.065 271.754Z" stroke="#FDB913" stroke-opacity="0.5" stroke-width="1.5" stroke-miterlimit="10"/>
<path d="M375.21 417.034L406.154 400.191C475.658 362.36 519 289.009 519 209.214V128.655C519 122.384 514.084 117.179 507.882 117.008C434.755 115.005 389.389 93.6674 374.456 85.4081C371.063 83.5306 366.938 83.5306 363.544 85.4081C348.611 93.6674 303.245 115.004 230.118 117.008C223.916 117.179 219 122.384 219 128.655V209.214C219 289.009 262.342 362.36 331.846 400.191L362.79 417.034C366.667 419.144 371.333 419.144 375.21 417.034Z" fill="white"/>
<path d="M504.169 138.139V206.502C504.169 282.602 463.034 352.254 396.823 388.3L374.872 400.243C373.047 401.235 371.023 401.741 369 401.741C366.977 401.741 364.953 401.235 363.128 400.243L341.177 388.3C274.967 352.254 233.831 282.602 233.831 206.502V138.139C233.831 134.906 236.391 132.257 239.614 132.029C301.906 127.793 344.677 111.287 366.321 100.714C367.184 100.288 368.087 100.08 368.999 100.08C369.912 100.08 370.814 100.288 371.677 100.714C393.321 111.288 436.102 127.793 498.384 132.029C501.609 132.257 504.169 134.906 504.169 138.139Z" fill="#FDB913" fill-opacity="0.3"/>
<path d="M504.169 138.139V206.502C504.169 282.602 463.034 352.254 396.823 388.3L374.872 400.243C373.047 401.235 371.023 401.741 369 401.741V100.08C369.913 100.08 370.815 100.288 371.678 100.714C393.322 111.288 436.103 127.793 498.385 132.029C501.609 132.257 504.169 134.906 504.169 138.139Z" fill="#FDB913"/>
<path d="M420.401 223.861H317.599C311.478 223.861 306.509 228.83 306.509 234.95V316.922C306.509 323.043 311.478 328.012 317.599 328.012H420.401C426.522 328.012 431.491 323.043 431.491 316.922V234.95C431.49 228.83 426.521 223.861 420.401 223.861ZM378.919 281.134V289.327C378.919 294.802 374.476 299.247 369 299.247C363.524 299.247 359.081 294.803 359.081 289.327V281.134C354.865 278.079 352.137 273.109 352.137 267.505C352.137 258.19 359.686 250.642 368.999 250.642C378.313 250.642 385.862 258.19 385.862 267.505C385.862 273.109 383.135 278.079 378.919 281.134Z" fill="white"/>
<path d="M405.701 193.151V206.006C405.701 210.389 402.148 213.942 397.765 213.942C393.383 213.942 389.83 210.389 389.83 206.006V193.663C389.83 182.382 381.074 172.762 369.802 172.336C357.952 171.889 348.169 181.399 348.169 193.152V215.927H332.299V193.749C332.299 173.748 348.058 156.966 368.053 156.463C378.565 156.198 388.096 160.351 394.948 167.203C401.595 173.848 405.701 183.013 405.701 193.151Z" fill="white"/>
</g>
<defs>
<clipPath id="clip0_24_14">
<rect width="750" height="500" fill="white"/>
</clipPath>
</defs>
</svg>
