<?xml version="1.0" encoding="UTF-8"?>
<svg version="1.1" xmlns="http://www.w3.org/2000/svg" width="256" height="256">
<path d="M0 0 C1.77661766 -0.01073296 1.77661766 -0.01073296 3.58912659 -0.02168274 C4.88526886 -0.02437164 6.18141113 -0.02706055 7.51683044 -0.02983093 C8.89857147 -0.03609906 10.28031082 -0.04274617 11.66204834 -0.04974365 C16.19753351 -0.07075193 20.73301887 -0.08114575 25.26853943 -0.09111023 C26.83341425 -0.09515955 28.3982889 -0.09927652 29.96316338 -0.10346031 C37.31920502 -0.12250803 44.67523667 -0.1367377 52.03129822 -0.14507228 C60.50351219 -0.15483146 68.97546398 -0.18111802 77.44758564 -0.22157317 C84.0074464 -0.25181432 90.56723237 -0.26654887 97.12716144 -0.26985329 C101.03940695 -0.27219544 104.95137226 -0.28104561 108.86354256 -0.30631447 C112.54986959 -0.32973966 116.23573482 -0.33377119 119.92211723 -0.32355309 C121.90359859 -0.32282824 123.88505725 -0.34181916 125.86643982 -0.36161804 C137.67992728 -0.29349475 146.44892739 2.37779184 155.03416443 10.63545227 C160.70967726 17.21086623 163.31363519 24.35486853 163.3493042 32.94503784 C163.36003716 34.7216555 163.36003716 34.7216555 163.37098694 36.53416443 C163.37367584 37.8303067 163.37636475 39.12644897 163.37913513 40.46186829 C163.38540326 41.84360931 163.39205037 43.22534866 163.39904785 44.60708618 C163.42005613 49.14257135 163.43044994 53.67805671 163.44041443 58.21357727 C163.44446375 59.7784521 163.44858072 61.34332675 163.45276451 62.90820122 C163.47181223 70.26424286 163.4860419 77.62027451 163.49437648 84.97633606 C163.50413566 93.44855003 163.53042222 101.92050182 163.57087737 110.39262348 C163.60111852 116.95248424 163.61585306 123.51227021 163.61915749 130.07219929 C163.62149964 133.9844448 163.63034981 137.8964101 163.65561867 141.8085804 C163.67904386 145.49490743 163.68307538 149.18077266 163.67285728 152.86715508 C163.67213244 154.84863643 163.69112336 156.83009509 163.71092224 158.81147766 C163.64279895 170.62496512 160.97151236 179.39396523 152.71385193 187.97920227 C146.13843797 193.6547151 138.99443567 196.25867303 130.40426636 196.29434204 C128.6276487 196.305075 128.6276487 196.305075 126.81513977 196.31602478 C125.5189975 196.31871368 124.22285522 196.32140259 122.88743591 196.32417297 C121.50569489 196.3304411 120.12395554 196.33708821 118.74221802 196.34408569 C114.20673285 196.36509397 109.67124749 196.37548779 105.13572693 196.38545227 C103.5708521 196.38950159 102.00597745 196.39361857 100.44110298 196.39780235 C93.08506134 196.41685007 85.72902969 196.43107974 78.37296814 196.43941432 C69.90075417 196.4491735 61.42880238 196.47546007 52.95668072 196.51591522 C46.39681995 196.54615636 39.83703399 196.56089091 33.27710491 196.56419533 C29.3648594 196.56653748 25.4528941 196.57538765 21.5407238 196.60065651 C17.85439677 196.6240817 14.16853154 196.62811323 10.48214912 196.61789513 C8.50066777 196.61717028 6.51920911 196.6361612 4.53782654 196.65596008 C-7.27566092 196.58783679 -16.04466103 193.9165502 -24.62989807 185.65888977 C-30.3054109 179.08347581 -32.90936883 171.93947351 -32.94503784 163.3493042 C-32.95219315 162.16489243 -32.95934845 160.98048065 -32.96672058 159.76017761 C-32.96940948 158.46403534 -32.97209839 157.16789307 -32.97486877 155.83247375 C-32.9811369 154.45073273 -32.98778401 153.06899338 -32.99478149 151.68725586 C-33.01578977 147.15177069 -33.02618359 142.61628533 -33.03614807 138.08076477 C-33.04019739 136.51588995 -33.04431437 134.95101529 -33.04849815 133.38614082 C-33.06754587 126.03009918 -33.08177554 118.67406753 -33.09011012 111.31800598 C-33.0998693 102.84579201 -33.12615587 94.37384022 -33.16661102 85.90171856 C-33.19685216 79.3418578 -33.21158671 72.78207183 -33.21489114 66.22214276 C-33.21723328 62.30989725 -33.22608345 58.39793194 -33.25135231 54.48576164 C-33.27477751 50.79943461 -33.27880903 47.11356938 -33.26859093 43.42718697 C-33.26786609 41.44570561 -33.286857 39.46424695 -33.30665588 37.48286438 C-33.23853259 25.66937692 -30.567246 16.90037681 -22.30958557 8.31513977 C-15.73417161 2.63962694 -8.59016931 0.03566901 0 0 Z " fill="#FBB713" transform="translate(62.79786682128906,29.852828979492188)"/>
<path d="M0 0 C4.08818106 -0.27498113 8.17269522 -0.47283299 12.26806641 -0.60424805 C13.65573954 -0.65907963 15.04279156 -0.7337928 16.42822266 -0.82983398 C22.59678837 -1.24626784 27.94995708 -1.56702044 33.08056641 2.35473633 C35.60299318 5.12746794 37.81762836 7.9559125 40 11 C41.19535097 12.36564009 42.40168264 13.7218541 43.625 15.0625 C46 18 46 18 46 20 C46.66 20 47.32 20 48 20 C48.27328125 19.40977051 48.5465625 18.81954102 48.828125 18.21142578 C49.96401931 16.06789857 51.16529716 14.44417521 52.75 12.6171875 C53.2759375 12.00746094 53.801875 11.39773437 54.34375 10.76953125 C54.8903125 10.14433594 55.436875 9.51914063 56 8.875 C56.5465625 8.24207031 57.093125 7.60914062 57.65625 6.95703125 C63.65872832 0.02769966 63.65872832 0.02769966 66.79736328 -0.22705078 C67.95993652 -0.21657715 69.12250977 -0.20610352 70.3203125 -0.1953125 C72.20556641 -0.18564453 72.20556641 -0.18564453 74.12890625 -0.17578125 C76.10697266 -0.15064453 76.10697266 -0.15064453 78.125 -0.125 C79.46483721 -0.11496983 80.80468152 -0.10584404 82.14453125 -0.09765625 C85.42986573 -0.07402075 88.71484465 -0.04107234 92 0 C90.63389732 3.03726958 89.06926193 5.20915026 86.76953125 7.609375 C86.13080078 8.28226563 85.49207031 8.95515625 84.83398438 9.6484375 C84.16689453 10.34195313 83.49980469 11.03546875 82.8125 11.75 C75.61265593 19.28655319 68.76840459 27.07601414 62 35 C63.70785719 39.15203604 66.64409488 42.28774343 69.5625 45.625 C70.0989917 46.24455566 70.6354834 46.86411133 71.18823242 47.50244141 C76.40097498 53.50442904 81.73143658 59.3990403 87.07421875 65.28515625 C87.70972656 65.99542969 88.34523438 66.70570313 89 67.4375 C89.556875 68.05496094 90.11375 68.67242187 90.6875 69.30859375 C92 71 92 71 93 74 C88.89329714 74.24958923 84.78959349 74.42969478 80.67700195 74.54931641 C79.28266449 74.59922342 77.88884022 74.66718831 76.49633789 74.75439453 C64.98318668 75.45666784 64.98318668 75.45666784 60.17504883 71.92504883 C57.88162927 69.39352371 55.91856866 66.82299439 54 64 C53.15676579 62.94922986 52.30609745 61.9042786 51.44140625 60.87109375 C50.51134766 59.66646484 50.51134766 59.66646484 49.5625 58.4375 C47.20024223 55.20771631 47.20024223 55.20771631 44 53 C43.5968457 53.87857666 43.5968457 53.87857666 43.18554688 54.77490234 C41.99300873 57.01312159 40.69964608 58.69858044 39.03125 60.6015625 C38.46019531 61.25640625 37.88914063 61.91125 37.30078125 62.5859375 C36.70652344 63.25882813 36.11226562 63.93171875 35.5 64.625 C34.90574219 65.305625 34.31148437 65.98625 33.69921875 66.6875 C27.3199006 73.97403495 27.3199006 73.97403495 24.20263672 74.22705078 C22.45877686 74.21134033 22.45877686 74.21134033 20.6796875 74.1953125 C18.79443359 74.18564453 18.79443359 74.18564453 16.87109375 74.17578125 C15.55238281 74.15902344 14.23367187 74.14226562 12.875 74.125 C11.53516279 74.11496983 10.19531848 74.10584404 8.85546875 74.09765625 C5.57013427 74.07402075 2.28515535 74.04107234 -1 74 C0.27358252 71.22464673 1.60792242 69.13121629 3.72265625 66.93359375 C4.52388916 66.08970093 4.52388916 66.08970093 5.34130859 65.22875977 C5.90930176 64.63764404 6.47729492 64.04652832 7.0625 63.4375 C11.96143612 58.26324394 16.55221024 52.98749451 20.984375 47.40625 C23.40173837 44.52040536 26.04382318 42.00192253 28.8828125 39.53515625 C30.23110028 38.05531726 30.23110028 38.05531726 29.73828125 36.10229492 C28.91987483 33.77183935 28.00830761 32.59997867 26.3046875 30.828125 C25.7571582 30.25030273 25.20962891 29.67248047 24.64550781 29.07714844 C24.06124023 28.47418945 23.47697266 27.87123047 22.875 27.25 C21.67888168 25.99034802 20.48356185 24.72993732 19.2890625 23.46875 C18.71575195 22.86675781 18.14244141 22.26476562 17.55175781 21.64453125 C15.19107691 19.14271462 12.94054511 16.55360665 10.69921875 13.9453125 C7.77771241 10.60069145 4.74202604 7.35784444 1.72265625 4.1015625 C0 2 0 2 0 0 Z " fill="#27221F" transform="translate(82,66)"/>
<path d="M0 0 C31.68 0 63.36 0 96 0 C96 8.25 96 16.5 96 25 C64.32 25 32.64 25 0 25 C0 16.75 0 8.5 0 0 Z " fill="#FEFDF9" transform="translate(80,165)"/>
</svg>
