<?xml version="1.0" encoding="UTF-8" standalone="no" ?>
<!DOCTYPE svg PUBLIC "-//W3C//DTD SVG 1.1//EN" "http://www.w3.org/Graphics/SVG/1.1/DTD/svg11.dtd">
<svg xmlns="http://www.w3.org/2000/svg" xmlns:xlink="http://www.w3.org/1999/xlink" version="1.1" width="1000" height="1000" viewBox="0 0 1000 1000" xml:space="preserve">
<desc>Created with Fabric.js 5.2.4</desc>
<defs>
</defs>
<rect x="0" y="0" width="100%" height="100%" fill="transparent"></rect>
<g transform="matrix(Infinity NaN NaN Infinity 0 0)" id="b6e1e6ef-ecaf-499b-a5d8-bdf173a1293b"  >
</g>
<g transform="matrix(1 0 0 1 500 500)" id="9cc0437d-3ddb-4988-aa97-21e9b915e5d3"  >
<rect style="stroke: none; stroke-width: 1; stroke-dasharray: none; stroke-linecap: butt; stroke-dashoffset: 0; stroke-linejoin: miter; stroke-miterlimit: 4; fill: rgb(255,255,255); fill-rule: nonzero; opacity: 1; visibility: hidden;" vector-effect="non-scaling-stroke"  x="-500" y="-500" rx="0" ry="0" width="1000" height="1000" />
</g>
<g transform="matrix(4.05 0 0 4.05 500 500)"  >
<path style="stroke: none; stroke-width: 1; stroke-dasharray: none; stroke-linecap: butt; stroke-dashoffset: 0; stroke-linejoin: miter; stroke-miterlimit: 4; fill: rgb(252,184,19); fill-rule: nonzero; opacity: 1;" vector-effect="non-scaling-stroke"  transform=" translate(-953.3, -540)" d="M 1016.4 633.6 L 890.2 633.6 C 873.3000000000001 633.6 859.7 619.9 859.7 603.1 L 859.7 476.9 C 859.7 460 873.4000000000001 446.4 890.2 446.4 L 1016.4000000000001 446.4 C 1033.3000000000002 446.4 1046.9 460.09999999999997 1046.9 476.9 L 1046.9 603.1 C 1046.9 620 1033.3 633.6 1016.4 633.6 z" stroke-linecap="round" />
</g>
<g transform="matrix(4.05 0 0 4.05 500.06 692.56)"  >
<rect style="stroke: none; stroke-width: 1; stroke-dasharray: none; stroke-linecap: butt; stroke-dashoffset: 0; stroke-linejoin: miter; stroke-miterlimit: 4; fill: rgb(255,255,255); fill-rule: nonzero; opacity: 1;" vector-effect="non-scaling-stroke"  x="-45.8" y="-12.05" rx="0" ry="0" width="91.6" height="24.1" />
</g>
<g transform="matrix(4.05 0 0 4.05 500.06 402.73)"  >
<path style="stroke: none; stroke-width: 1; stroke-dasharray: none; stroke-linecap: butt; stroke-dashoffset: 0; stroke-linejoin: miter; stroke-miterlimit: 4; fill: rgb(35,31,32); fill-rule: nonzero; opacity: 1;" vector-effect="non-scaling-stroke"  transform=" translate(-953.3, -515.95)" d="M 967.3 514.9 L 999.0999999999999 551.4 L 969.8 551.4 L 952.5 531.1 L 935.2 551.4 L 907.5 551.4 L 939.2 515.3 L 908.3000000000001 480.49999999999994 L 937.7 480.49999999999994 L 954.1 499.59999999999997 L 970.5 480.49999999999994 L 998.3 480.49999999999994 L 967.3 514.9 z" stroke-linecap="round" />
</g>
</svg>