<svg width="750" height="500" viewBox="0 0 750 500" fill="none" xmlns="http://www.w3.org/2000/svg">
<g clip-path="url(#clip0_244_12427)">
<path d="M348 146V107H303V0" stroke="#686868" stroke-opacity="0.2" stroke-width="2" stroke-miterlimit="10"/>
<path d="M353.8 151.393C353.8 154.331 351.419 156.711 348.482 156.711C345.545 156.711 343.164 154.33 343.164 151.393C343.164 148.456 345.545 146.075 348.482 146.075C351.419 146.075 353.8 148.456 353.8 151.393Z" stroke="#686868" stroke-opacity="0.2" stroke-width="1.5" stroke-miterlimit="10"/>
<path d="M289.8 167.393C289.8 170.331 287.419 172.711 284.482 172.711C281.545 172.711 279.164 170.33 279.164 167.393C279.164 164.456 281.545 162.075 284.482 162.075C287.419 162.075 289.8 164.456 289.8 167.393Z" stroke="#686868" stroke-opacity="0.2" stroke-width="1.5" stroke-miterlimit="10"/>
<path d="M280.282 164.345L144.105 39H53V0" stroke="#686868" stroke-opacity="0.2" stroke-width="2" stroke-miterlimit="10"/>
<path d="M256.8 235.393C256.8 238.331 254.419 240.711 251.482 240.711C248.545 240.711 246.164 238.33 246.164 235.393C246.164 232.456 248.545 230.075 251.482 230.075C254.419 230.075 256.8 232.456 256.8 235.393Z" stroke="#686868" stroke-opacity="0.2" stroke-width="1.5" stroke-miterlimit="10"/>
<path d="M247.582 232.184L152.065 136H1" stroke="#686868" stroke-opacity="0.2" stroke-width="2" stroke-miterlimit="10"/>
<path d="M260.8 359.394C260.8 362.331 258.419 364.711 255.482 364.711C252.545 364.711 250.164 362.33 250.164 359.394C250.164 356.456 252.545 354.076 255.482 354.076C258.419 354.076 260.8 356.456 260.8 359.394Z" stroke="#FDB913" stroke-opacity="0.5" stroke-width="1.5" stroke-miterlimit="10"/>
<path d="M255 354V316H138V168H245V0" stroke="#FDB913" stroke-opacity="0.5" stroke-width="2" stroke-miterlimit="10"/>
<path d="M268 224H200V156H91V68H0" stroke="#FDB913" stroke-opacity="0.5" stroke-width="2" stroke-miterlimit="10"/>
<path d="M278.8 224.393C278.8 227.331 276.419 229.711 273.482 229.711C270.545 229.711 268.164 227.33 268.164 224.393C268.164 221.456 270.545 219.075 273.482 219.075C276.419 219.075 278.8 221.456 278.8 224.393Z" stroke="#FDB913" stroke-opacity="0.5" stroke-width="1.5" stroke-miterlimit="10"/>
<path d="M251.473 197.667L151.732 97H0" stroke="#FDB913" stroke-opacity="0.5" stroke-width="2" stroke-miterlimit="10"/>
<path d="M260.8 201.393C260.8 204.331 258.419 206.711 255.482 206.711C252.545 206.711 250.164 204.33 250.164 201.393C250.164 198.456 252.545 196.075 255.482 196.075C258.419 196.075 260.8 198.456 260.8 201.393Z" stroke="#FDB913" stroke-opacity="0.5" stroke-width="1.5" stroke-miterlimit="10"/>
<path d="M271 106H184V0" stroke="#FDB913" stroke-opacity="0.5" stroke-width="2" stroke-miterlimit="10"/>
<path d="M281.8 106.393C281.8 109.331 279.419 111.711 276.482 111.711C273.545 111.711 271.164 109.33 271.164 106.393C271.164 103.456 273.545 101.075 276.482 101.075C279.419 101.075 281.8 103.456 281.8 106.393Z" stroke="#FDB913" stroke-opacity="0.5" stroke-width="1.5" stroke-miterlimit="10"/>
<path d="M224 139V68H110V0" stroke="#FDB913" stroke-opacity="0.5" stroke-width="2" stroke-miterlimit="10"/>
<path d="M229.8 144.393C229.8 147.331 227.419 149.711 224.482 149.711C221.545 149.711 219.164 147.33 219.164 144.393C219.164 141.456 221.545 139.075 224.482 139.075C227.419 139.075 229.8 141.456 229.8 144.393Z" stroke="#FDB913" stroke-opacity="0.5" stroke-width="1.5" stroke-miterlimit="10"/>
<path d="M0 232H66V116H134" stroke="#FDB913" stroke-opacity="0.5" stroke-width="2" stroke-miterlimit="10"/>
<path d="M144.8 116.393C144.8 119.331 142.419 121.711 139.482 121.711C136.545 121.711 134.164 119.33 134.164 116.393C134.164 113.456 136.545 111.075 139.482 111.075C142.419 111.075 144.8 113.456 144.8 116.393Z" stroke="#FDB913" stroke-opacity="0.5" stroke-width="1.5" stroke-miterlimit="10"/>
<path d="M0 166H43" stroke="#FDB913" stroke-opacity="0.5" stroke-width="2" stroke-miterlimit="10"/>
<path d="M53.8 165.393C53.8 168.331 51.419 170.711 48.482 170.711C45.545 170.711 43.164 168.33 43.164 165.393C43.164 162.456 45.545 160.075 48.482 160.075C51.419 160.075 53.8 162.456 53.8 165.393Z" stroke="#FDB913" stroke-opacity="0.5" stroke-width="1.5" stroke-miterlimit="10"/>
<path d="M0.39801 213.068L39.065 195H149.065L180.94 226.749" stroke="#FDB913" stroke-opacity="0.5" stroke-width="2" stroke-miterlimit="10"/>
<path d="M189.8 230.393C189.8 233.331 187.419 235.711 184.482 235.711C181.545 235.711 179.164 233.33 179.164 230.393C179.164 227.456 181.545 225.075 184.482 225.075C187.419 225.075 189.8 227.456 189.8 230.393Z" stroke="#FDB913" stroke-opacity="0.5" stroke-width="1.5" stroke-miterlimit="10"/>
<path d="M348 355V395H303V500" stroke="#686868" stroke-opacity="0.2" stroke-width="2" stroke-miterlimit="10"/>
<path d="M353.8 350.754C353.8 347.818 351.419 345.437 348.482 345.437C345.545 345.437 343.164 347.818 343.164 350.754C343.164 353.692 345.545 356.072 348.482 356.072C351.419 356.072 353.8 353.691 353.8 350.754Z" stroke="#686868" stroke-opacity="0.2" stroke-width="1.5" stroke-miterlimit="10"/>
<path d="M289.8 334.754C289.8 331.818 287.419 329.437 284.482 329.437C281.545 329.437 279.164 331.818 279.164 334.754C279.164 337.692 281.545 340.072 284.482 340.072C287.419 340.072 289.8 337.691 289.8 334.754Z" stroke="#686868" stroke-opacity="0.2" stroke-width="1.5" stroke-miterlimit="10"/>
<path d="M280.282 337.155L144.105 463H53V500" stroke="#686868" stroke-opacity="0.2" stroke-width="2" stroke-miterlimit="10"/>
<path d="M256.8 266.754C256.8 263.818 254.419 261.437 251.482 261.437C248.545 261.437 246.164 263.818 246.164 266.754C246.164 269.692 248.545 272.072 251.482 272.072C254.419 272.072 256.8 269.691 256.8 266.754Z" stroke="#686868" stroke-opacity="0.2" stroke-width="1.5" stroke-miterlimit="10"/>
<path d="M247.582 269.815L152.065 366H1" stroke="#686868" stroke-opacity="0.2" stroke-width="2" stroke-miterlimit="10"/>
<path d="M260.8 134.754C260.8 131.817 258.419 129.436 255.482 129.436C252.545 129.436 250.164 131.817 250.164 134.754C250.164 137.691 252.545 140.072 255.482 140.072C258.419 140.072 260.8 137.691 260.8 134.754Z" stroke="#FDB913" stroke-opacity="0.5" stroke-width="1.5" stroke-miterlimit="10"/>
<path d="M255 139V178H138V325H245V500" stroke="#FDB913" stroke-opacity="0.5" stroke-width="2" stroke-miterlimit="10"/>
<path d="M268 278H200V346H91V434H0" stroke="#FDB913" stroke-opacity="0.5" stroke-width="2" stroke-miterlimit="10"/>
<path d="M278.8 277.754C278.8 274.818 276.419 272.437 273.482 272.437C270.545 272.437 268.164 274.818 268.164 277.754C268.164 280.692 270.545 283.072 273.482 283.072C276.419 283.072 278.8 280.691 278.8 277.754Z" stroke="#FDB913" stroke-opacity="0.5" stroke-width="1.5" stroke-miterlimit="10"/>
<path d="M251.473 304.333L151.732 405H0" stroke="#FDB913" stroke-opacity="0.5" stroke-width="2" stroke-miterlimit="10"/>
<path d="M260.8 300.754C260.8 297.818 258.419 295.437 255.482 295.437C252.545 295.437 250.164 297.818 250.164 300.754C250.164 303.692 252.545 306.072 255.482 306.072C258.419 306.072 260.8 303.691 260.8 300.754Z" stroke="#FDB913" stroke-opacity="0.5" stroke-width="1.5" stroke-miterlimit="10"/>
<path d="M271 396H184V500" stroke="#FDB913" stroke-opacity="0.5" stroke-width="2" stroke-miterlimit="10"/>
<path d="M281.8 395.754C281.8 392.818 279.419 390.437 276.482 390.437C273.545 390.437 271.164 392.818 271.164 395.754C271.164 398.692 273.545 401.072 276.482 401.072C279.419 401.072 281.8 398.691 281.8 395.754Z" stroke="#FDB913" stroke-opacity="0.5" stroke-width="1.5" stroke-miterlimit="10"/>
<path d="M224 362V434H110V500" stroke="#FDB913" stroke-opacity="0.5" stroke-width="2" stroke-miterlimit="10"/>
<path d="M229.8 357.754C229.8 354.818 227.419 352.437 224.482 352.437C221.545 352.437 219.164 354.818 219.164 357.754C219.164 360.692 221.545 363.072 224.482 363.072C227.419 363.072 229.8 360.691 229.8 357.754Z" stroke="#FDB913" stroke-opacity="0.5" stroke-width="1.5" stroke-miterlimit="10"/>
<path d="M0 270H66V386H134" stroke="#FDB913" stroke-opacity="0.5" stroke-width="2" stroke-miterlimit="10"/>
<path d="M144.8 385.754C144.8 382.818 142.419 380.437 139.482 380.437C136.545 380.437 134.164 382.818 134.164 385.754C134.164 388.692 136.545 391.072 139.482 391.072C142.419 391.072 144.8 388.691 144.8 385.754Z" stroke="#FDB913" stroke-opacity="0.5" stroke-width="1.5" stroke-miterlimit="10"/>
<path d="M0 336H43" stroke="#FDB913" stroke-opacity="0.5" stroke-width="2" stroke-miterlimit="10"/>
<path d="M53.8 336.754C53.8 333.818 51.419 331.437 48.482 331.437C45.545 331.437 43.164 333.818 43.164 336.754C43.164 339.692 45.545 342.072 48.482 342.072C51.419 342.072 53.8 339.691 53.8 336.754Z" stroke="#FDB913" stroke-opacity="0.5" stroke-width="1.5" stroke-miterlimit="10"/>
<path d="M0.39801 289.006L39.065 307H149.065L180.94 275.287" stroke="#FDB913" stroke-opacity="0.5" stroke-width="2" stroke-miterlimit="10"/>
<path d="M189.8 271.754C189.8 268.818 187.419 266.437 184.482 266.437C181.545 266.437 179.164 268.818 179.164 271.754C179.164 274.692 181.545 277.072 184.482 277.072C187.419 277.072 189.8 274.691 189.8 271.754Z" stroke="#FDB913" stroke-opacity="0.5" stroke-width="1.5" stroke-miterlimit="10"/>
<path d="M400 146V107H445V0" stroke="#686868" stroke-opacity="0.2" stroke-width="2" stroke-miterlimit="10"/>
<path d="M395.065 151.393C395.065 154.331 397.446 156.711 400.383 156.711C403.319 156.711 405.701 154.33 405.701 151.393C405.701 148.456 403.319 146.075 400.383 146.075C397.446 146.075 395.065 148.456 395.065 151.393Z" stroke="#686868" stroke-opacity="0.2" stroke-width="1.5" stroke-miterlimit="10"/>
<path d="M459.065 167.393C459.065 170.331 461.446 172.711 464.383 172.711C467.32 172.711 469.701 170.33 469.701 167.393C469.701 164.456 467.319 162.075 464.383 162.075C461.446 162.075 459.065 164.456 459.065 167.393Z" stroke="#686868" stroke-opacity="0.2" stroke-width="1.5" stroke-miterlimit="10"/>
<path d="M468.149 164.345L604.76 39H695V0" stroke="#686868" stroke-opacity="0.2" stroke-width="2" stroke-miterlimit="10"/>
<path d="M492.065 235.393C492.065 238.331 494.446 240.711 497.383 240.711C500.32 240.711 502.701 238.33 502.701 235.393C502.701 232.456 500.319 230.075 497.383 230.075C494.446 230.075 492.065 232.456 492.065 235.393Z" stroke="#686868" stroke-opacity="0.2" stroke-width="1.5" stroke-miterlimit="10"/>
<path d="M501.351 232.184L596.8 136H748" stroke="#686868" stroke-opacity="0.2" stroke-width="2" stroke-miterlimit="10"/>
<path d="M488.065 367.394C488.065 370.331 490.446 372.711 493.383 372.711C496.32 372.711 498.701 370.33 498.701 367.394C498.701 364.456 496.319 362.076 493.383 362.076C490.446 362.075 488.065 364.456 488.065 367.394Z" stroke="#FDB913" stroke-opacity="0.5" stroke-width="1.5" stroke-miterlimit="10"/>
<path d="M493 362V324H610V177H503V0" stroke="#FDB913" stroke-opacity="0.5" stroke-width="2" stroke-miterlimit="10"/>
<path d="M481 224H548V156H657V68H749" stroke="#FDB913" stroke-opacity="0.5" stroke-width="2" stroke-miterlimit="10"/>
<path d="M470.065 224.393C470.065 227.331 472.446 229.711 475.383 229.711C478.32 229.711 480.701 227.33 480.701 224.393C480.701 221.456 478.319 219.075 475.383 219.075C472.446 219.075 470.065 221.456 470.065 224.393Z" stroke="#FDB913" stroke-opacity="0.5" stroke-width="1.5" stroke-miterlimit="10"/>
<path d="M497.46 197.667L597.133 97H749" stroke="#FDB913" stroke-opacity="0.5" stroke-width="2" stroke-miterlimit="10"/>
<path d="M488.065 201.393C488.065 204.331 490.446 206.711 493.383 206.711C496.32 206.711 498.701 204.33 498.701 201.393C498.701 198.456 496.319 196.075 493.383 196.075C490.446 196.075 488.065 198.456 488.065 201.393Z" stroke="#FDB913" stroke-opacity="0.5" stroke-width="1.5" stroke-miterlimit="10"/>
<path d="M478 106H564V0" stroke="#FDB913" stroke-opacity="0.5" stroke-width="2" stroke-miterlimit="10"/>
<path d="M467.065 106.393C467.065 109.331 469.446 111.711 472.383 111.711C475.32 111.711 477.701 109.33 477.701 106.393C477.701 103.456 475.319 101.075 472.383 101.075C469.446 101.075 467.065 103.456 467.065 106.393Z" stroke="#FDB913" stroke-opacity="0.5" stroke-width="1.5" stroke-miterlimit="10"/>
<path d="M524 139V68H638V0" stroke="#FDB913" stroke-opacity="0.5" stroke-width="2" stroke-miterlimit="10"/>
<path d="M519.065 144.393C519.065 147.331 521.446 149.711 524.383 149.711C527.32 149.711 529.701 147.33 529.701 144.393C529.701 141.456 527.319 139.075 524.383 139.075C521.446 139.075 519.065 141.456 519.065 144.393Z" stroke="#FDB913" stroke-opacity="0.5" stroke-width="1.5" stroke-miterlimit="10"/>
<path d="M749 232H682V116H615" stroke="#FDB913" stroke-opacity="0.5" stroke-width="2" stroke-miterlimit="10"/>
<path d="M604.065 116.393C604.065 119.331 606.446 121.711 609.383 121.711C612.32 121.711 614.701 119.33 614.701 116.393C614.701 113.456 612.319 111.075 609.383 111.075C606.446 111.075 604.065 113.456 604.065 116.393Z" stroke="#FDB913" stroke-opacity="0.5" stroke-width="1.5" stroke-miterlimit="10"/>
<path d="M749 166H706" stroke="#FDB913" stroke-opacity="0.5" stroke-width="2" stroke-miterlimit="10"/>
<path d="M695.065 165.393C695.065 168.331 697.446 170.711 700.383 170.711C703.32 170.711 705.701 168.33 705.701 165.393C705.701 162.456 703.319 160.075 700.383 160.075C697.446 160.075 695.065 162.456 695.065 165.393Z" stroke="#FDB913" stroke-opacity="0.5" stroke-width="1.5" stroke-miterlimit="10"/>
<path d="M748.466 213.068L709.8 195H599.8L567.925 226.749" stroke="#FDB913" stroke-opacity="0.5" stroke-width="2" stroke-miterlimit="10"/>
<path d="M559.065 230.393C559.065 233.331 561.446 235.711 564.383 235.711C567.32 235.711 569.701 233.33 569.701 230.393C569.701 227.456 567.319 225.075 564.383 225.075C561.446 225.075 559.065 227.456 559.065 230.393Z" stroke="#FDB913" stroke-opacity="0.5" stroke-width="1.5" stroke-miterlimit="10"/>
<path d="M400 355V395H445V500" stroke="#686868" stroke-opacity="0.2" stroke-width="2" stroke-miterlimit="10"/>
<path d="M395.065 350.754C395.065 347.818 397.446 345.437 400.383 345.437C403.319 345.437 405.701 347.818 405.701 350.754C405.701 353.692 403.319 356.072 400.383 356.072C397.446 356.072 395.065 353.691 395.065 350.754Z" stroke="#686868" stroke-opacity="0.2" stroke-width="1.5" stroke-miterlimit="10"/>
<path d="M459.065 334.754C459.065 331.818 461.446 329.437 464.383 329.437C467.32 329.437 469.701 331.818 469.701 334.754C469.701 337.692 467.319 340.072 464.383 340.072C461.446 340.072 459.065 337.691 459.065 334.754Z" stroke="#686868" stroke-opacity="0.2" stroke-width="1.5" stroke-miterlimit="10"/>
<path d="M468.149 337.155L604.76 463H695V500" stroke="#686868" stroke-opacity="0.2" stroke-width="2" stroke-miterlimit="10"/>
<path d="M492.065 266.754C492.065 263.818 494.446 261.437 497.383 261.437C500.32 261.437 502.701 263.818 502.701 266.754C502.701 269.692 500.319 272.072 497.383 272.072C494.446 272.072 492.065 269.691 492.065 266.754Z" stroke="#686868" stroke-opacity="0.2" stroke-width="1.5" stroke-miterlimit="10"/>
<path d="M501.351 269.815L596.8 366H748" stroke="#686868" stroke-opacity="0.2" stroke-width="2" stroke-miterlimit="10"/>
<path d="M488.065 123.754C488.065 120.817 490.446 118.436 493.383 118.436C496.32 118.436 498.701 120.817 498.701 123.754C498.701 126.691 496.319 129.072 493.383 129.072C490.446 129.072 488.065 126.691 488.065 123.754Z" stroke="#FDB913" stroke-opacity="0.5" stroke-width="1.5" stroke-miterlimit="10"/>
<path d="M493 129V167H610V335H503V500" stroke="#FDB913" stroke-opacity="0.5" stroke-width="2" stroke-miterlimit="10"/>
<path d="M481 278H548V346H657V434H749" stroke="#FDB913" stroke-opacity="0.5" stroke-width="2" stroke-miterlimit="10"/>
<path d="M470.065 277.754C470.065 274.818 472.446 272.437 475.383 272.437C478.32 272.437 480.701 274.818 480.701 277.754C480.701 280.692 478.319 283.072 475.383 283.072C472.446 283.072 470.065 280.691 470.065 277.754Z" stroke="#FDB913" stroke-opacity="0.5" stroke-width="1.5" stroke-miterlimit="10"/>
<path d="M497.46 304.333L597.133 405H749" stroke="#FDB913" stroke-opacity="0.5" stroke-width="2" stroke-miterlimit="10"/>
<path d="M488.065 300.754C488.065 297.818 490.446 295.437 493.383 295.437C496.32 295.437 498.701 297.818 498.701 300.754C498.701 303.692 496.319 306.072 493.383 306.072C490.446 306.072 488.065 303.691 488.065 300.754Z" stroke="#FDB913" stroke-opacity="0.5" stroke-width="1.5" stroke-miterlimit="10"/>
<path d="M478 396H564V500" stroke="#FDB913" stroke-opacity="0.5" stroke-width="2" stroke-miterlimit="10"/>
<path d="M467.065 395.754C467.065 392.818 469.446 390.437 472.383 390.437C475.32 390.437 477.701 392.818 477.701 395.754C477.701 398.692 475.319 401.072 472.383 401.072C469.446 401.072 467.065 398.691 467.065 395.754Z" stroke="#FDB913" stroke-opacity="0.5" stroke-width="1.5" stroke-miterlimit="10"/>
<path d="M524 362V434H638V500" stroke="#FDB913" stroke-opacity="0.5" stroke-width="2" stroke-miterlimit="10"/>
<path d="M519.065 357.754C519.065 354.818 521.446 352.437 524.383 352.437C527.32 352.437 529.701 354.818 529.701 357.754C529.701 360.692 527.319 363.072 524.383 363.072C521.446 363.072 519.065 360.691 519.065 357.754Z" stroke="#FDB913" stroke-opacity="0.5" stroke-width="1.5" stroke-miterlimit="10"/>
<path d="M749 270H682V386H615" stroke="#FDB913" stroke-opacity="0.5" stroke-width="2" stroke-miterlimit="10"/>
<path d="M604.065 385.754C604.065 382.818 606.446 380.437 609.383 380.437C612.32 380.437 614.701 382.818 614.701 385.754C614.701 388.692 612.319 391.072 609.383 391.072C606.446 391.072 604.065 388.691 604.065 385.754Z" stroke="#FDB913" stroke-opacity="0.5" stroke-width="1.5" stroke-miterlimit="10"/>
<path d="M749 336H706" stroke="#FDB913" stroke-opacity="0.5" stroke-width="2" stroke-miterlimit="10"/>
<path d="M695.065 336.754C695.065 333.818 697.446 331.437 700.383 331.437C703.32 331.437 705.701 333.818 705.701 336.754C705.701 339.692 703.319 342.072 700.383 342.072C697.446 342.072 695.065 339.691 695.065 336.754Z" stroke="#FDB913" stroke-opacity="0.5" stroke-width="1.5" stroke-miterlimit="10"/>
<path d="M748.466 289.006L709.8 307H599.8L567.925 275.287" stroke="#FDB913" stroke-opacity="0.5" stroke-width="2" stroke-miterlimit="10"/>
<path d="M559.065 271.754C559.065 268.818 561.446 266.437 564.383 266.437C567.32 266.437 569.701 268.818 569.701 271.754C569.701 274.692 567.319 277.072 564.383 277.072C561.446 277.072 559.065 274.691 559.065 271.754Z" stroke="#FDB913" stroke-opacity="0.5" stroke-width="1.5" stroke-miterlimit="10"/>
<rect x="221.5" y="102.5" width="295" height="295" rx="13.5" fill="#FEEAB8"/>
<rect x="221.5" y="102.5" width="295" height="295" rx="13.5" stroke="#686868" stroke-width="5"/>
<rect x="234" y="115" width="270" height="270" stroke="#686868" stroke-width="6"/>
<rect x="243.5" y="124.5" width="252" height="33" stroke="#686868" stroke-width="3"/>
<rect x="243.5" y="169.5" width="252" height="68" stroke="#686868" stroke-width="3"/>
<rect x="243.5" y="251.5" width="124" height="121" stroke="#686868" stroke-width="3"/>
<rect x="444.5" y="251.5" width="51" height="54" stroke="#686868" stroke-width="3"/>
<rect x="444.5" y="320.5" width="51" height="52" stroke="#686868" stroke-width="3"/>
<rect x="381.5" y="251.5" width="51" height="121" stroke="#686868" stroke-width="3"/>
<path d="M253.025 131.006C253.156 131.006 253.286 131.006 253.417 131.006C255.063 131.006 256.71 131.012 258.356 131C258.639 130.998 258.835 131.092 259.025 131.288C259.886 132.177 260.758 133.054 261.626 133.935C261.648 133.958 261.674 133.977 261.747 134.04C261.942 133.833 262.133 133.624 262.33 133.422C263.07 132.667 263.809 131.912 264.557 131.164C264.635 131.085 264.768 131.015 264.877 131.014C266.672 131.007 268.467 131.011 270.262 131.014C270.31 131.014 270.357 131.024 270.487 131.04C268.514 133.042 266.582 135.004 264.628 136.988C266.565 138.958 268.497 140.922 270.48 142.938C270.331 142.956 270.25 142.974 270.169 142.974C268.431 142.977 266.694 142.975 264.957 142.984C264.717 142.985 264.58 142.85 264.436 142.703C263.586 141.838 262.735 140.975 261.883 140.111C261.838 140.064 261.788 140.022 261.726 139.964C261.647 140.037 261.567 140.105 261.494 140.179C260.629 141.052 259.769 141.929 258.896 142.795C258.803 142.887 258.645 142.967 258.516 142.968C256.779 142.979 255.041 142.976 253.305 142.975C253.226 142.975 253.146 142.966 253.041 142.924C254.926 140.912 256.877 138.972 258.813 136.987C256.866 135.009 254.934 133.043 253 131.078C253.008 131.054 253.017 131.03 253.025 131.006Z" fill="#686868"/>
<path d="M261.731 151C258.943 151 256.155 151 253.367 151C253.013 151 253.012 150.999 253.012 150.652C253.012 149.531 253.017 148.41 253.008 147.289C253.005 147.057 253.079 146.98 253.318 146.98C258.878 146.983 264.437 146.979 269.997 146.976C270.055 146.976 270.113 146.983 270.17 146.98C270.373 146.969 270.441 147.061 270.44 147.259C270.433 148.323 270.437 149.388 270.437 150.452C270.437 150.817 270.248 151 269.872 151C267.159 151 264.445 151 261.731 151Z" fill="#FFAF00"/>
<path d="M299.822 151L297.974 147.248H287.222L285.374 151H279.382L289.518 131.4H295.762L305.898 151H299.822ZM289.182 143.188H295.986L292.598 136.244L289.182 143.188ZM313.779 151H308.067V131.4H313.779V151ZM337.1 146.996C339.732 146.996 341.748 146.1 343.12 144L348.02 146.52C346.2 149.404 342.252 151.644 336.96 151.644C329.568 151.644 324.584 147.808 324.584 141.2C324.584 134.592 329.568 130.756 337.184 130.756C342.252 130.756 346.172 133.052 347.936 135.852L343.008 138.372C341.72 136.356 339.732 135.404 337.1 135.404C333.068 135.404 330.38 137.448 330.38 141.2C330.38 144.952 333.068 146.996 337.1 146.996ZM359.764 151.644C353.52 151.644 349.6 148.424 349.6 143.244C349.6 138.036 353.52 134.872 359.764 134.872C365.98 134.872 369.9 138.036 369.9 143.244C369.9 148.424 365.98 151.644 359.764 151.644ZM359.764 147.388C362.592 147.388 364.636 145.96 364.636 143.244C364.636 140.5 362.592 139.1 359.764 139.1C356.936 139.1 354.892 140.5 354.892 143.244C354.892 145.96 356.936 147.388 359.764 147.388ZM378.408 151H372.892V135.488H378.408V138.372C379.696 136.188 382.132 135.124 384.904 135.124V139.716C381.6 139.716 379.22 140.976 378.408 143.524V151ZM391.286 144.42C391.734 146.772 393.61 147.724 396.746 147.724C399.21 147.724 400.694 147.136 402.234 145.96L405.034 148.9C402.822 150.86 399.966 151.644 396.438 151.644C389.858 151.644 386.022 148.452 386.022 143.244C386.022 138.036 389.802 134.844 396.018 134.844C401.618 134.844 405.594 137.644 405.594 143.132C405.594 143.748 405.566 144.112 405.454 144.42H391.286ZM396.074 138.708C393.694 138.708 392.042 139.576 391.426 141.452L400.498 141.396C399.91 139.576 398.426 138.708 396.074 138.708Z" fill="#686868"/>
<line x1="305.5" y1="250" x2="305.5" y2="239" stroke="#686868" stroke-width="3"/>
<line x1="369" y1="310.5" x2="380" y2="310.5" stroke="#686868" stroke-width="3"/>
<line x1="434" y1="278.5" x2="445" y2="278.5" stroke="#686868" stroke-width="3"/>
<line x1="434" y1="344.5" x2="445" y2="344.5" stroke="#686868" stroke-width="3"/>
<line x1="471.5" y1="250" x2="471.5" y2="239" stroke="#686868" stroke-width="3"/>
<line x1="407.5" y1="250" x2="407.5" y2="239" stroke="#686868" stroke-width="3"/>
<line x1="471.5" y1="307" x2="471.5" y2="319" stroke="#686868" stroke-width="3"/>
<path d="M317.697 204.742L315.318 198.303L312.926 204.742H317.697ZM319.092 208.379H311.531L309.85 213H305.365L313.076 193.395H317.547L325.258 213H320.773L319.092 208.379ZM328.061 213V193.395H332.271V213H328.061ZM353.135 204.742L350.756 198.303L348.363 204.742H353.135ZM354.529 208.379H346.969L345.287 213H340.803L348.514 193.395H352.984L360.695 213H356.211L354.529 208.379ZM372.043 211.879V210.771C372.002 210.826 371.947 210.895 371.865 210.977C371.783 211.059 371.619 211.223 371.373 211.441C371.127 211.66 370.854 211.865 370.566 212.043C370.279 212.221 369.896 212.385 369.432 212.521C368.967 212.658 368.475 212.74 367.982 212.74C366.41 212.74 364.988 212.057 363.717 210.689C362.445 209.322 361.816 207.723 361.816 205.877C361.816 204.018 362.445 202.418 363.717 201.051C364.988 199.684 366.41 199.014 367.982 199.014C368.762 199.014 369.5 199.178 370.184 199.506C370.867 199.834 371.346 200.148 371.619 200.463L372.043 200.969V199.287H375.816V211.893C375.816 213.861 375.119 215.529 373.738 216.869C372.357 218.209 370.621 218.893 368.543 218.893C367.75 218.893 366.998 218.783 366.287 218.578C365.562 218.373 364.961 218.127 364.482 217.854C364.018 217.58 363.594 217.293 363.238 217.006C362.883 216.705 362.637 216.459 362.486 216.268L362.227 215.953L364.605 213.711C364.701 213.834 364.838 213.998 365.029 214.217C365.221 214.422 365.645 214.695 366.301 215.023C366.957 215.352 367.654 215.516 368.406 215.516C369.527 215.516 370.402 215.201 371.059 214.545C371.715 213.889 372.043 213 372.043 211.879ZM365.74 205.863C365.74 206.834 366.027 207.641 366.629 208.283C367.23 208.912 367.955 209.24 368.816 209.24C369.678 209.24 370.43 208.912 371.072 208.256C371.715 207.6 372.043 206.793 372.043 205.863C372.043 204.934 371.715 204.141 371.072 203.484C370.43 202.828 369.678 202.514 368.816 202.514C367.955 202.514 367.23 202.828 366.629 203.457C366.027 204.086 365.74 204.893 365.74 205.863ZM392.469 207.395H382.529C382.666 208.146 383.062 208.775 383.719 209.295C384.361 209.814 385.182 210.061 386.166 210.061C386.877 210.061 387.533 209.924 388.135 209.65C388.736 209.377 389.174 209.09 389.42 208.803L389.816 208.379L391.771 210.895L391.512 211.154C391.402 211.264 391.156 211.455 390.787 211.729C390.404 212.002 390.008 212.248 389.598 212.467C389.174 212.686 388.627 212.863 387.957 213.027C387.287 213.191 386.604 213.273 385.893 213.273C383.869 213.273 382.16 212.576 380.738 211.182C379.316 209.787 378.605 208.105 378.605 206.137C378.605 204.182 379.303 202.5 380.711 201.105C382.105 199.711 383.787 199 385.756 199C387.711 199 389.338 199.656 390.65 200.969C391.949 202.281 392.605 203.908 392.605 205.863L392.469 207.395ZM385.756 202.227C384.949 202.227 384.266 202.459 383.705 202.924C383.145 203.389 382.748 204.004 382.529 204.742H388.832C388.682 204.018 388.326 203.416 387.779 202.938C387.232 202.473 386.549 202.227 385.756 202.227ZM399.195 199.273L399.182 200.969C399.291 200.818 399.455 200.641 399.646 200.422C399.852 200.203 400.289 199.916 400.973 199.547C401.656 199.191 402.367 199 403.105 199C404.678 199 405.963 199.547 406.947 200.627C407.932 201.721 408.424 203.184 408.424 205.016V213H404.65V205.439C404.65 204.605 404.404 203.936 403.912 203.416C403.42 202.896 402.777 202.637 401.998 202.637C401.137 202.637 400.453 202.924 399.947 203.484C399.441 204.045 399.195 204.838 399.195 205.863V213H395.422V199.273H399.195ZM413.756 197.742V195.227H417.119V199.561H419.908V202.924H417.119V208.379C417.119 208.816 417.27 209.172 417.584 209.473C417.898 209.773 418.295 209.924 418.787 209.924C419.033 209.924 419.266 209.91 419.498 209.855C419.73 209.801 419.908 209.746 420.031 209.691L420.195 209.637V212.863C419.443 213.15 418.596 213.287 417.666 213.273C414.768 213.273 413.332 211.688 413.332 208.516V202.924H410.953V199.561H412.211C412.635 199.561 413.004 199.396 413.305 199.055C413.605 198.727 413.756 198.289 413.756 197.742ZM432.363 201.105L430.408 203.334C430.354 203.266 430.258 203.17 430.135 203.033C430.012 202.91 429.752 202.746 429.369 202.541C428.973 202.336 428.576 202.227 428.166 202.227C427.646 202.227 427.236 202.35 426.936 202.568C426.635 202.787 426.484 203.047 426.484 203.334C426.484 203.689 426.689 203.99 427.127 204.223C427.551 204.469 428.07 204.674 428.686 204.865C429.301 205.057 429.93 205.275 430.559 205.535C431.188 205.795 431.707 206.219 432.145 206.793C432.568 207.367 432.787 208.092 432.787 208.939C432.787 210.17 432.295 211.209 431.324 212.029C430.354 212.863 429.027 213.273 427.332 213.273C426.594 213.273 425.91 213.191 425.254 213.014C424.598 212.85 424.064 212.631 423.654 212.385C423.244 212.139 422.875 211.906 422.574 211.66C422.273 211.414 422.055 211.209 421.918 211.045L421.727 210.758L423.832 208.666C423.9 208.775 424.01 208.926 424.174 209.09C424.338 209.254 424.666 209.486 425.186 209.773C425.691 210.061 426.225 210.197 426.771 210.197C427.373 210.197 427.824 210.088 428.125 209.855C428.426 209.623 428.59 209.322 428.59 208.939C428.59 208.57 428.371 208.256 427.947 208.01C427.51 207.764 426.99 207.545 426.361 207.354C425.732 207.162 425.104 206.943 424.488 206.67C423.873 206.41 423.354 206 422.93 205.439C422.492 204.893 422.287 204.182 422.287 203.334C422.287 202.24 422.793 201.242 423.818 200.34C424.844 199.451 426.102 199 427.605 199C428.549 199 429.424 199.178 430.217 199.533C431.01 199.889 431.57 200.244 431.885 200.572L432.363 201.105Z" fill="#686868"/>
<path d="M285.916 322H272.613V302.395H276.824V318.227H285.916V322ZM302.432 322H289.129V302.395H293.34V318.227H302.432V322ZM316.145 310.939L322.926 302.395H326.645V322H322.447V308.93L316.145 316.955L309.855 308.984V322H305.645V302.395H309.432L316.145 310.939ZM340.357 310.105L338.402 312.334C338.348 312.266 338.252 312.17 338.129 312.033C338.006 311.91 337.746 311.746 337.363 311.541C336.967 311.336 336.57 311.227 336.16 311.227C335.641 311.227 335.23 311.35 334.93 311.568C334.629 311.787 334.479 312.047 334.479 312.334C334.479 312.689 334.684 312.99 335.121 313.223C335.545 313.469 336.064 313.674 336.68 313.865C337.295 314.057 337.924 314.275 338.553 314.535C339.182 314.795 339.701 315.219 340.139 315.793C340.562 316.367 340.781 317.092 340.781 317.939C340.781 319.17 340.289 320.209 339.318 321.029C338.348 321.863 337.021 322.273 335.326 322.273C334.588 322.273 333.904 322.191 333.248 322.014C332.592 321.85 332.059 321.631 331.648 321.385C331.238 321.139 330.869 320.906 330.568 320.66C330.268 320.414 330.049 320.209 329.912 320.045L329.721 319.758L331.826 317.666C331.895 317.775 332.004 317.926 332.168 318.09C332.332 318.254 332.66 318.486 333.18 318.773C333.686 319.061 334.219 319.197 334.766 319.197C335.367 319.197 335.818 319.088 336.119 318.855C336.42 318.623 336.584 318.322 336.584 317.939C336.584 317.57 336.365 317.256 335.941 317.01C335.504 316.764 334.984 316.545 334.355 316.354C333.727 316.162 333.098 315.943 332.482 315.67C331.867 315.41 331.348 315 330.924 314.439C330.486 313.893 330.281 313.182 330.281 312.334C330.281 311.24 330.787 310.242 331.812 309.34C332.838 308.451 334.096 308 335.6 308C336.543 308 337.418 308.178 338.211 308.533C339.004 308.889 339.564 309.244 339.879 309.572L340.357 310.105Z" fill="#686868"/>
<path d="M469.682 297.288V293.439H473.318C473.366 293.48 473.435 293.535 473.523 293.617C473.612 293.699 473.763 293.87 473.981 294.144C474.2 294.417 474.392 294.704 474.556 295.005C474.72 295.306 474.87 295.702 475.007 296.194C475.144 296.687 475.212 297.186 475.212 297.705C475.212 299.202 474.713 300.467 473.715 301.492C472.717 302.518 471.507 303.03 470.099 303.03C468.69 303.03 467.487 302.518 466.489 301.492C465.491 300.467 464.992 299.202 464.992 297.705C464.992 297.192 465.061 296.7 465.197 296.235C465.334 295.771 465.491 295.395 465.683 295.094C465.874 294.793 466.065 294.533 466.257 294.301C466.448 294.068 466.612 293.904 466.742 293.802L466.947 293.645L468.28 294.978C468.246 295.005 468.198 295.046 468.13 295.094C468.062 295.142 467.952 295.251 467.788 295.415C467.631 295.579 467.494 295.764 467.371 295.955C467.248 296.153 467.139 296.413 467.036 296.728C466.934 297.049 466.879 297.377 466.879 297.705C466.879 298.621 467.187 299.387 467.802 300.002C468.417 300.617 469.183 300.925 470.099 300.925C471.015 300.925 471.78 300.617 472.396 300.002C473.011 299.387 473.318 298.621 473.318 297.705C473.318 297.268 473.257 296.871 473.127 296.509C472.997 296.153 472.867 295.9 472.73 295.75L472.553 295.538H471.22V297.288H469.682ZM475 286.932H474.303C474.371 286.986 474.446 287.068 474.542 287.164C474.638 287.267 474.761 287.485 474.911 287.827C475.062 288.169 475.137 288.524 475.137 288.894C475.137 289.68 474.877 290.322 474.351 290.814C473.824 291.307 473.12 291.553 472.245 291.553H468.137V289.666H472.061C472.443 289.666 472.765 289.543 473.011 289.29C473.264 289.037 473.387 288.716 473.387 288.333C473.387 287.909 473.25 287.567 472.97 287.314C472.696 287.062 472.3 286.932 471.78 286.932H468.137V285.045H475V286.932ZM475 279.378L474.303 279.385C474.371 279.439 474.446 279.515 474.542 279.61C474.638 279.706 474.761 279.925 474.911 280.253C475.062 280.581 475.137 280.923 475.137 281.278C475.137 281.962 474.952 282.516 474.569 282.946C474.187 283.37 473.729 283.589 473.182 283.589C472.621 283.589 472.156 283.404 471.78 283.049C471.411 282.687 471.165 282.188 471.049 281.559L470.659 279.385C470.372 279.385 470.14 279.487 469.955 279.699C469.777 279.904 469.682 280.198 469.682 280.574C469.682 280.882 469.743 281.162 469.859 281.422C469.976 281.675 470.092 281.853 470.215 281.962L470.379 282.119L469.333 283.165C469.299 283.138 469.251 283.097 469.189 283.049C469.128 283.001 469.019 282.892 468.868 282.728C468.718 282.563 468.588 282.379 468.472 282.188C468.355 281.989 468.246 281.729 468.15 281.415C468.055 281.094 468 280.766 468 280.431C468 279.569 468.26 278.858 468.779 278.312C469.299 277.765 469.948 277.491 470.728 277.491H475V279.378ZM473.599 280.786C473.599 280.355 473.469 280.014 473.195 279.761C472.922 279.508 472.546 279.385 472.061 279.385H471.849L472.129 280.923C472.211 281.436 472.471 281.695 472.901 281.695C473.366 281.695 473.599 281.388 473.599 280.786ZM468.068 271.537L469.969 271.544C469.921 271.681 469.894 271.893 469.887 272.173C469.887 272.665 470.044 273.062 470.358 273.349C470.673 273.636 471.124 273.786 471.712 273.786H475V275.673H468.137V273.786H468.978C468.916 273.731 468.834 273.649 468.731 273.554C468.629 273.451 468.492 273.232 468.321 272.891C468.157 272.549 468.068 272.193 468.068 271.817V271.537ZM468 267.613C468 267.224 468.089 266.861 468.253 266.52C468.417 266.178 468.574 265.938 468.731 265.795L468.984 265.583H465.204V263.696H475.007V265.583H474.166C474.193 265.604 474.228 265.631 474.269 265.672C474.31 265.713 474.392 265.795 474.501 265.918C474.61 266.041 474.713 266.178 474.802 266.321C474.891 266.472 474.966 266.656 475.034 266.889C475.103 267.121 475.137 267.367 475.137 267.613C475.137 268.502 474.795 269.274 474.104 269.931C473.414 270.587 472.566 270.908 471.568 270.908C470.57 270.908 469.729 270.587 469.039 269.931C468.349 269.274 468 268.502 468 267.613ZM473.469 267.271C473.469 266.807 473.291 266.41 472.936 266.082C472.58 265.754 472.122 265.59 471.575 265.59C471.021 265.59 470.57 265.754 470.215 266.082C469.859 266.41 469.682 266.807 469.682 267.271C469.682 267.736 469.859 268.133 470.215 268.461C470.57 268.789 471.021 268.953 471.575 268.953C472.122 268.953 472.58 268.789 472.936 268.461C473.291 268.133 473.469 267.736 473.469 267.271ZM469.053 257.045L470.167 258.022C470.133 258.05 470.085 258.098 470.017 258.159C469.955 258.221 469.873 258.351 469.771 258.542C469.668 258.74 469.613 258.938 469.613 259.144C469.613 259.403 469.675 259.608 469.784 259.759C469.894 259.909 470.023 259.984 470.167 259.984C470.345 259.984 470.495 259.882 470.611 259.663C470.734 259.451 470.837 259.191 470.933 258.884C471.028 258.576 471.138 258.262 471.268 257.947C471.397 257.633 471.609 257.373 471.896 257.154C472.184 256.942 472.546 256.833 472.97 256.833C473.585 256.833 474.104 257.079 474.515 257.564C474.932 258.05 475.137 258.713 475.137 259.561C475.137 259.93 475.096 260.271 475.007 260.6C474.925 260.928 474.815 261.194 474.692 261.399C474.569 261.604 474.453 261.789 474.33 261.939C474.207 262.09 474.104 262.199 474.022 262.268L473.879 262.363L472.833 261.311C472.888 261.276 472.963 261.222 473.045 261.14C473.127 261.058 473.243 260.894 473.387 260.634C473.53 260.381 473.599 260.114 473.599 259.841C473.599 259.54 473.544 259.314 473.428 259.164C473.312 259.014 473.161 258.932 472.97 258.932C472.785 258.932 472.628 259.041 472.505 259.253C472.382 259.472 472.272 259.731 472.177 260.046C472.081 260.36 471.972 260.675 471.835 260.982C471.705 261.29 471.5 261.55 471.22 261.762C470.946 261.98 470.591 262.083 470.167 262.083C469.62 262.083 469.121 261.83 468.67 261.317C468.226 260.805 468 260.176 468 259.424C468 258.952 468.089 258.515 468.267 258.118C468.444 257.722 468.622 257.441 468.786 257.284L469.053 257.045Z" fill="#686868"/>
<path d="M469.805 367.516C470.578 367.516 471.234 367.258 471.762 366.73C472.295 366.209 472.559 365.57 472.559 364.82C472.559 364.07 472.295 363.432 471.762 362.91C471.234 362.383 470.578 362.125 469.805 362.125C469.031 362.125 468.375 362.383 467.842 362.91C467.309 363.432 467.039 364.07 467.039 364.82C467.039 365.57 467.309 366.209 467.842 366.73C468.375 367.258 469.031 367.516 469.805 367.516ZM469.799 369.379C468.592 369.379 467.561 368.939 466.705 368.061C465.85 367.182 465.422 366.098 465.422 364.82C465.422 363.543 465.85 362.459 466.705 361.58C467.561 360.701 468.592 360.262 469.799 360.262C471.006 360.262 472.043 360.701 472.898 361.58C473.754 362.459 474.182 363.543 474.182 364.82C474.182 366.098 473.754 367.182 472.898 368.061C472.043 368.939 471.006 369.379 469.799 369.379ZM468 355.51C468 354.748 468.299 354.092 468.891 353.529C469.482 352.973 470.203 352.691 471.059 352.691C471.914 352.691 472.641 352.973 473.232 353.535C473.824 354.098 474.117 354.754 474.117 355.51C474.117 355.85 474.053 356.16 473.912 356.453C473.771 356.746 473.637 356.957 473.496 357.074L473.279 357.25H474V358.873H465.598V357.25H468.838C468.814 357.238 468.785 357.215 468.75 357.18C468.715 357.15 468.65 357.08 468.557 356.975C468.463 356.869 468.375 356.752 468.299 356.623C468.223 356.5 468.152 356.336 468.094 356.137C468.035 355.938 468 355.727 468 355.51ZM472.682 355.814C472.682 355.416 472.529 355.076 472.225 354.795C471.92 354.514 471.533 354.373 471.059 354.373C470.59 354.373 470.203 354.514 469.898 354.795C469.594 355.076 469.441 355.416 469.441 355.814C469.441 356.213 469.594 356.553 469.898 356.834C470.203 357.115 470.59 357.25 471.059 357.25C471.533 357.25 471.92 357.115 472.225 356.834C472.529 356.553 472.682 356.213 472.682 355.814ZM468.902 347.412L469.857 348.25C469.828 348.273 469.787 348.314 469.729 348.367C469.676 348.42 469.605 348.531 469.518 348.695C469.43 348.865 469.383 349.035 469.383 349.211C469.383 349.434 469.436 349.609 469.529 349.738C469.623 349.867 469.734 349.932 469.857 349.932C470.01 349.932 470.139 349.844 470.238 349.656C470.344 349.475 470.432 349.252 470.514 348.988C470.596 348.725 470.689 348.455 470.801 348.186C470.912 347.916 471.094 347.693 471.34 347.506C471.586 347.324 471.896 347.23 472.26 347.23C472.787 347.23 473.232 347.441 473.584 347.857C473.941 348.273 474.117 348.842 474.117 349.568C474.117 349.885 474.082 350.178 474.006 350.459C473.936 350.74 473.842 350.969 473.736 351.145C473.631 351.32 473.531 351.479 473.426 351.607C473.32 351.736 473.232 351.83 473.162 351.889L473.039 351.971L472.143 351.068C472.189 351.039 472.254 350.992 472.324 350.922C472.395 350.852 472.494 350.711 472.617 350.488C472.74 350.271 472.799 350.043 472.799 349.809C472.799 349.551 472.752 349.357 472.652 349.229C472.553 349.1 472.424 349.029 472.26 349.029C472.102 349.029 471.967 349.123 471.861 349.305C471.756 349.492 471.662 349.715 471.58 349.984C471.498 350.254 471.404 350.523 471.287 350.787C471.176 351.051 471 351.273 470.76 351.455C470.525 351.643 470.221 351.73 469.857 351.73C469.389 351.73 468.961 351.514 468.574 351.074C468.193 350.635 468 350.096 468 349.451C468 349.047 468.076 348.672 468.229 348.332C468.381 347.992 468.533 347.752 468.674 347.617L468.902 347.412ZM471.598 340.451V344.711C471.92 344.652 472.189 344.482 472.412 344.201C472.635 343.926 472.74 343.574 472.74 343.152C472.74 342.848 472.682 342.566 472.564 342.309C472.447 342.051 472.324 341.863 472.201 341.758L472.02 341.588L473.098 340.75L473.209 340.861C473.256 340.908 473.338 341.014 473.455 341.172C473.572 341.336 473.678 341.506 473.771 341.682C473.865 341.863 473.941 342.098 474.012 342.385C474.082 342.672 474.117 342.965 474.117 343.27C474.117 344.137 473.818 344.869 473.221 345.479C472.623 346.088 471.902 346.393 471.059 346.393C470.221 346.393 469.5 346.094 468.902 345.49C468.305 344.893 468 344.172 468 343.328C468 342.49 468.281 341.793 468.844 341.23C469.406 340.674 470.104 340.393 470.941 340.393L471.598 340.451ZM469.383 343.328C469.383 343.674 469.482 343.967 469.682 344.207C469.881 344.447 470.145 344.617 470.461 344.711V342.01C470.15 342.074 469.893 342.227 469.688 342.461C469.488 342.695 469.383 342.988 469.383 343.328ZM468.059 335.646L469.688 335.652C469.646 335.77 469.623 335.951 469.617 336.191C469.617 336.613 469.752 336.953 470.021 337.199C470.291 337.445 470.678 337.574 471.182 337.574H474V339.191H468.117V337.574H468.838C468.785 337.527 468.715 337.457 468.627 337.375C468.539 337.287 468.422 337.1 468.275 336.807C468.135 336.514 468.059 336.209 468.059 335.887V335.646ZM474 331.199V332.881L468.117 335.102V333.42L472.02 332.043L468.117 330.66V328.984L474 331.199ZM471.598 322.568V326.828C471.92 326.77 472.189 326.6 472.412 326.318C472.635 326.043 472.74 325.691 472.74 325.27C472.74 324.965 472.682 324.684 472.564 324.426C472.447 324.168 472.324 323.98 472.201 323.875L472.02 323.705L473.098 322.867L473.209 322.979C473.256 323.025 473.338 323.131 473.455 323.289C473.572 323.453 473.678 323.623 473.771 323.799C473.865 323.98 473.941 324.215 474.012 324.502C474.082 324.789 474.117 325.082 474.117 325.387C474.117 326.254 473.818 326.986 473.221 327.596C472.623 328.205 471.902 328.51 471.059 328.51C470.221 328.51 469.5 328.211 468.902 327.607C468.305 327.01 468 326.289 468 325.445C468 324.607 468.281 323.91 468.844 323.348C469.406 322.791 470.104 322.51 470.941 322.51L471.598 322.568ZM469.383 325.445C469.383 325.791 469.482 326.084 469.682 326.324C469.881 326.564 470.145 326.734 470.461 326.828V324.127C470.15 324.191 469.893 324.344 469.688 324.578C469.488 324.812 469.383 325.105 469.383 325.445Z" fill="#686868"/>
<path d="M396.984 353.502C396.984 352.477 397.121 351.492 397.395 350.562C397.668 349.633 397.982 348.881 398.365 348.279C398.748 347.678 399.131 347.158 399.514 346.693C399.896 346.229 400.225 345.9 400.484 345.695L400.895 345.381L403.561 348.047C403.492 348.102 403.396 348.184 403.26 348.279C403.123 348.375 402.904 348.594 402.576 348.922C402.262 349.25 401.988 349.619 401.742 350.002C401.496 350.398 401.277 350.918 401.072 351.547C400.867 352.189 400.758 352.846 400.758 353.502C400.758 355.334 401.373 356.865 402.604 358.096C403.834 359.326 405.365 359.941 407.197 359.941C409.029 359.941 410.561 359.326 411.791 358.096C413.021 356.865 413.637 355.334 413.637 353.502C413.637 352.791 413.541 352.121 413.35 351.465C413.158 350.809 412.926 350.275 412.652 349.838C412.379 349.414 412.105 349.031 411.832 348.703C411.559 348.375 411.326 348.143 411.121 347.992L410.834 347.773L413.5 345.244C413.609 345.326 413.76 345.436 413.938 345.586C414.115 345.736 414.43 346.064 414.881 346.584C415.332 347.104 415.729 347.65 416.07 348.238C416.412 348.826 416.727 349.592 417 350.549C417.287 351.506 417.424 352.49 417.424 353.502C417.424 356.496 416.426 359.025 414.43 361.076C412.434 363.127 410.014 364.152 407.197 364.152C404.381 364.152 401.975 363.127 399.979 361.076C397.982 359.025 396.984 356.496 396.984 353.502ZM410.15 339.652C411.176 339.652 412.037 339.324 412.734 338.654C413.432 337.998 413.773 337.205 413.773 336.289C413.773 335.387 413.432 334.594 412.734 333.924C412.037 333.268 411.176 332.926 410.15 332.926C409.125 332.926 408.264 333.268 407.553 333.924C406.855 334.594 406.5 335.387 406.5 336.289C406.5 337.205 406.855 337.998 407.553 338.654C408.264 339.324 409.125 339.652 410.15 339.652ZM410.137 329.016C412.051 329.016 413.719 329.74 415.141 331.189C416.562 332.639 417.273 334.334 417.273 336.289C417.273 338.258 416.562 339.953 415.141 341.402C413.719 342.852 412.051 343.576 410.137 343.576C408.236 343.576 406.568 342.852 405.146 341.402C403.725 339.953 403.014 338.258 403.014 336.289C403.014 334.334 403.725 332.639 405.146 331.189C406.568 329.74 408.236 329.016 410.137 329.016ZM403.273 322.439L404.969 322.453C404.818 322.344 404.641 322.18 404.422 321.988C404.203 321.783 403.916 321.346 403.547 320.662C403.191 319.979 403 319.268 403 318.529C403 316.957 403.547 315.672 404.627 314.688C405.721 313.703 407.184 313.211 409.016 313.211H417V316.984H409.439C408.605 316.984 407.936 317.23 407.416 317.723C406.896 318.215 406.637 318.857 406.637 319.637C406.637 320.498 406.924 321.182 407.484 321.688C408.045 322.193 408.838 322.439 409.863 322.439H417V326.213H403.273V322.439ZM401.742 307.879H399.227V304.516H403.561V301.727H406.924V304.516H412.379C412.816 304.516 413.172 304.365 413.473 304.051C413.773 303.736 413.924 303.34 413.924 302.848C413.924 302.602 413.91 302.369 413.855 302.137C413.801 301.904 413.746 301.727 413.691 301.604L413.637 301.439H416.863C417.15 302.191 417.287 303.039 417.273 303.969C417.273 306.867 415.688 308.303 412.516 308.303H406.924V310.682H403.561V309.424C403.561 309 403.396 308.631 403.055 308.33C402.727 308.029 402.289 307.879 401.742 307.879ZM411.395 286.346V296.285C412.146 296.148 412.775 295.752 413.295 295.096C413.814 294.453 414.061 293.633 414.061 292.648C414.061 291.938 413.924 291.281 413.65 290.68C413.377 290.078 413.09 289.641 412.803 289.395L412.379 288.998L414.895 287.043L415.154 287.303C415.264 287.412 415.455 287.658 415.729 288.027C416.002 288.41 416.248 288.807 416.467 289.217C416.686 289.641 416.863 290.188 417.027 290.857C417.191 291.527 417.273 292.211 417.273 292.922C417.273 294.945 416.576 296.654 415.182 298.076C413.787 299.498 412.105 300.209 410.137 300.209C408.182 300.209 406.5 299.512 405.105 298.104C403.711 296.709 403 295.027 403 293.059C403 291.104 403.656 289.477 404.969 288.164C406.281 286.865 407.908 286.209 409.863 286.209L411.395 286.346ZM406.227 293.059C406.227 293.865 406.459 294.549 406.924 295.109C407.389 295.67 408.004 296.066 408.742 296.285V289.982C408.018 290.133 407.416 290.488 406.938 291.035C406.473 291.582 406.227 292.266 406.227 293.059ZM412.666 278.074L417 281.014V285.074L410 280.453L403.273 284.801V280.59L407.334 278.074L403.273 275.559V271.348L410 275.695L417 271.074V275.135L412.666 278.074ZM401.742 267.438H399.227V264.074H403.561V261.285H406.924V264.074H412.379C412.816 264.074 413.172 263.924 413.473 263.609C413.773 263.295 413.924 262.898 413.924 262.406C413.924 262.16 413.91 261.928 413.855 261.695C413.801 261.463 413.746 261.285 413.691 261.162L413.637 260.998H416.863C417.15 261.75 417.287 262.598 417.273 263.527C417.273 266.426 415.688 267.861 412.516 267.861H406.924V270.24H403.561V268.982C403.561 268.559 403.396 268.189 403.055 267.889C402.727 267.588 402.289 267.438 401.742 267.438Z" fill="#686868"/>
</g>
<defs>
<clipPath id="clip0_244_12427">
<rect width="750" height="500" fill="white"/>
</clipPath>
</defs>
</svg>
