<svg width="750" height="500" viewBox="0 0 750 500" fill="none" xmlns="http://www.w3.org/2000/svg">
<g clip-path="url(#clip0_244_12283)">
<path d="M348 146V107H303V0" stroke="#FDB913" stroke-opacity="0.2" stroke-width="2" stroke-miterlimit="10"/>
<path d="M353.8 151.393C353.8 154.331 351.419 156.711 348.482 156.711C345.545 156.711 343.164 154.33 343.164 151.393C343.164 148.456 345.545 146.075 348.482 146.075C351.419 146.075 353.8 148.456 353.8 151.393Z" stroke="#FDB913" stroke-opacity="0.2" stroke-width="1.5" stroke-miterlimit="10"/>
<path d="M289.8 167.393C289.8 170.331 287.419 172.711 284.482 172.711C281.545 172.711 279.164 170.33 279.164 167.393C279.164 164.456 281.545 162.075 284.482 162.075C287.419 162.075 289.8 164.456 289.8 167.393Z" stroke="#FDB913" stroke-opacity="0.2" stroke-width="1.5" stroke-miterlimit="10"/>
<path d="M280.282 164.345L144.105 39H53V0" stroke="#FDB913" stroke-opacity="0.2" stroke-width="2" stroke-miterlimit="10"/>
<path d="M256.8 235.393C256.8 238.331 254.419 240.711 251.482 240.711C248.545 240.711 246.164 238.33 246.164 235.393C246.164 232.456 248.545 230.075 251.482 230.075C254.419 230.075 256.8 232.456 256.8 235.393Z" stroke="#FDB913" stroke-opacity="0.2" stroke-width="1.5" stroke-miterlimit="10"/>
<path d="M247.582 232.184L152.065 136H1" stroke="#FDB913" stroke-opacity="0.2" stroke-width="2" stroke-miterlimit="10"/>
<path d="M260.8 359.394C260.8 362.331 258.419 364.711 255.482 364.711C252.545 364.711 250.164 362.33 250.164 359.394C250.164 356.456 252.545 354.076 255.482 354.076C258.419 354.076 260.8 356.456 260.8 359.394Z" stroke="#FDB913" stroke-opacity="0.5" stroke-width="1.5" stroke-miterlimit="10"/>
<path d="M255 354V316H138V168H245V0" stroke="#FDB913" stroke-opacity="0.5" stroke-width="2" stroke-miterlimit="10"/>
<path d="M268 224H200V156H91V68H0" stroke="#FDB913" stroke-opacity="0.5" stroke-width="2" stroke-miterlimit="10"/>
<path d="M278.8 224.393C278.8 227.331 276.419 229.711 273.482 229.711C270.545 229.711 268.164 227.33 268.164 224.393C268.164 221.456 270.545 219.075 273.482 219.075C276.419 219.075 278.8 221.456 278.8 224.393Z" stroke="#FDB913" stroke-opacity="0.5" stroke-width="1.5" stroke-miterlimit="10"/>
<path d="M251.473 197.667L151.732 97H0" stroke="#FDB913" stroke-opacity="0.5" stroke-width="2" stroke-miterlimit="10"/>
<path d="M260.8 201.393C260.8 204.331 258.419 206.711 255.482 206.711C252.545 206.711 250.164 204.33 250.164 201.393C250.164 198.456 252.545 196.075 255.482 196.075C258.419 196.075 260.8 198.456 260.8 201.393Z" stroke="#FDB913" stroke-opacity="0.5" stroke-width="1.5" stroke-miterlimit="10"/>
<path d="M271 106H184V0" stroke="#FDB913" stroke-opacity="0.5" stroke-width="2" stroke-miterlimit="10"/>
<path d="M281.8 106.393C281.8 109.331 279.419 111.711 276.482 111.711C273.545 111.711 271.164 109.33 271.164 106.393C271.164 103.456 273.545 101.075 276.482 101.075C279.419 101.075 281.8 103.456 281.8 106.393Z" stroke="#FDB913" stroke-opacity="0.5" stroke-width="1.5" stroke-miterlimit="10"/>
<path d="M224 139V68H110V0" stroke="#FDB913" stroke-opacity="0.5" stroke-width="2" stroke-miterlimit="10"/>
<path d="M229.8 144.393C229.8 147.331 227.419 149.711 224.482 149.711C221.545 149.711 219.164 147.33 219.164 144.393C219.164 141.456 221.545 139.075 224.482 139.075C227.419 139.075 229.8 141.456 229.8 144.393Z" stroke="#FDB913" stroke-opacity="0.5" stroke-width="1.5" stroke-miterlimit="10"/>
<path d="M0 232H66V116H134" stroke="#FDB913" stroke-opacity="0.5" stroke-width="2" stroke-miterlimit="10"/>
<path d="M144.8 116.393C144.8 119.331 142.419 121.711 139.482 121.711C136.545 121.711 134.164 119.33 134.164 116.393C134.164 113.456 136.545 111.075 139.482 111.075C142.419 111.075 144.8 113.456 144.8 116.393Z" stroke="#FDB913" stroke-opacity="0.5" stroke-width="1.5" stroke-miterlimit="10"/>
<path d="M0 166H43" stroke="#FDB913" stroke-opacity="0.5" stroke-width="2" stroke-miterlimit="10"/>
<path d="M53.8 165.393C53.8 168.331 51.419 170.711 48.482 170.711C45.545 170.711 43.164 168.33 43.164 165.393C43.164 162.456 45.545 160.075 48.482 160.075C51.419 160.075 53.8 162.456 53.8 165.393Z" stroke="#FDB913" stroke-opacity="0.5" stroke-width="1.5" stroke-miterlimit="10"/>
<path d="M0.39801 213.068L39.065 195H149.065L180.94 226.749" stroke="#FDB913" stroke-opacity="0.5" stroke-width="2" stroke-miterlimit="10"/>
<path d="M189.8 230.393C189.8 233.331 187.419 235.711 184.482 235.711C181.545 235.711 179.164 233.33 179.164 230.393C179.164 227.456 181.545 225.075 184.482 225.075C187.419 225.075 189.8 227.456 189.8 230.393Z" stroke="#FDB913" stroke-opacity="0.5" stroke-width="1.5" stroke-miterlimit="10"/>
<path d="M348 355V395H303V500" stroke="#FDB913" stroke-opacity="0.2" stroke-width="2" stroke-miterlimit="10"/>
<path d="M353.8 350.754C353.8 347.818 351.419 345.437 348.482 345.437C345.545 345.437 343.164 347.818 343.164 350.754C343.164 353.692 345.545 356.072 348.482 356.072C351.419 356.072 353.8 353.691 353.8 350.754Z" stroke="#FDB913" stroke-opacity="0.2" stroke-width="1.5" stroke-miterlimit="10"/>
<path d="M289.8 334.754C289.8 331.818 287.419 329.437 284.482 329.437C281.545 329.437 279.164 331.818 279.164 334.754C279.164 337.692 281.545 340.072 284.482 340.072C287.419 340.072 289.8 337.691 289.8 334.754Z" stroke="#FDB913" stroke-opacity="0.2" stroke-width="1.5" stroke-miterlimit="10"/>
<path d="M280.282 337.155L144.105 463H53V500" stroke="#FDB913" stroke-opacity="0.2" stroke-width="2" stroke-miterlimit="10"/>
<path d="M256.8 266.754C256.8 263.818 254.419 261.437 251.482 261.437C248.545 261.437 246.164 263.818 246.164 266.754C246.164 269.692 248.545 272.072 251.482 272.072C254.419 272.072 256.8 269.691 256.8 266.754Z" stroke="#FDB913" stroke-opacity="0.2" stroke-width="1.5" stroke-miterlimit="10"/>
<path d="M247.582 269.815L152.065 366H1" stroke="#FDB913" stroke-opacity="0.2" stroke-width="2" stroke-miterlimit="10"/>
<path d="M260.8 134.754C260.8 131.817 258.419 129.436 255.482 129.436C252.545 129.436 250.164 131.817 250.164 134.754C250.164 137.691 252.545 140.072 255.482 140.072C258.419 140.072 260.8 137.691 260.8 134.754Z" stroke="#FDB913" stroke-opacity="0.5" stroke-width="1.5" stroke-miterlimit="10"/>
<path d="M255 139V178H138V325H245V500" stroke="#FDB913" stroke-opacity="0.5" stroke-width="2" stroke-miterlimit="10"/>
<path d="M268 278H200V346H91V434H0" stroke="#FDB913" stroke-opacity="0.5" stroke-width="2" stroke-miterlimit="10"/>
<path d="M278.8 277.754C278.8 274.818 276.419 272.437 273.482 272.437C270.545 272.437 268.164 274.818 268.164 277.754C268.164 280.692 270.545 283.072 273.482 283.072C276.419 283.072 278.8 280.691 278.8 277.754Z" stroke="#FDB913" stroke-opacity="0.5" stroke-width="1.5" stroke-miterlimit="10"/>
<path d="M251.473 304.333L151.732 405H0" stroke="#FDB913" stroke-opacity="0.5" stroke-width="2" stroke-miterlimit="10"/>
<path d="M260.8 300.754C260.8 297.818 258.419 295.437 255.482 295.437C252.545 295.437 250.164 297.818 250.164 300.754C250.164 303.692 252.545 306.072 255.482 306.072C258.419 306.072 260.8 303.691 260.8 300.754Z" stroke="#FDB913" stroke-opacity="0.5" stroke-width="1.5" stroke-miterlimit="10"/>
<path d="M271 396H184V500" stroke="#FDB913" stroke-opacity="0.5" stroke-width="2" stroke-miterlimit="10"/>
<path d="M281.8 395.754C281.8 392.818 279.419 390.437 276.482 390.437C273.545 390.437 271.164 392.818 271.164 395.754C271.164 398.692 273.545 401.072 276.482 401.072C279.419 401.072 281.8 398.691 281.8 395.754Z" stroke="#FDB913" stroke-opacity="0.5" stroke-width="1.5" stroke-miterlimit="10"/>
<path d="M224 362V434H110V500" stroke="#FDB913" stroke-opacity="0.5" stroke-width="2" stroke-miterlimit="10"/>
<path d="M229.8 357.754C229.8 354.818 227.419 352.437 224.482 352.437C221.545 352.437 219.164 354.818 219.164 357.754C219.164 360.692 221.545 363.072 224.482 363.072C227.419 363.072 229.8 360.691 229.8 357.754Z" stroke="#FDB913" stroke-opacity="0.5" stroke-width="1.5" stroke-miterlimit="10"/>
<path d="M0 270H66V386H134" stroke="#FDB913" stroke-opacity="0.5" stroke-width="2" stroke-miterlimit="10"/>
<path d="M144.8 385.754C144.8 382.818 142.419 380.437 139.482 380.437C136.545 380.437 134.164 382.818 134.164 385.754C134.164 388.692 136.545 391.072 139.482 391.072C142.419 391.072 144.8 388.691 144.8 385.754Z" stroke="#FDB913" stroke-opacity="0.5" stroke-width="1.5" stroke-miterlimit="10"/>
<path d="M0 336H43" stroke="#FDB913" stroke-opacity="0.5" stroke-width="2" stroke-miterlimit="10"/>
<path d="M53.8 336.754C53.8 333.818 51.419 331.437 48.482 331.437C45.545 331.437 43.164 333.818 43.164 336.754C43.164 339.692 45.545 342.072 48.482 342.072C51.419 342.072 53.8 339.691 53.8 336.754Z" stroke="#FDB913" stroke-opacity="0.5" stroke-width="1.5" stroke-miterlimit="10"/>
<path d="M0.39801 289.006L39.065 307H149.065L180.94 275.287" stroke="#FDB913" stroke-opacity="0.5" stroke-width="2" stroke-miterlimit="10"/>
<path d="M189.8 271.754C189.8 268.818 187.419 266.437 184.482 266.437C181.545 266.437 179.164 268.818 179.164 271.754C179.164 274.692 181.545 277.072 184.482 277.072C187.419 277.072 189.8 274.691 189.8 271.754Z" stroke="#FDB913" stroke-opacity="0.5" stroke-width="1.5" stroke-miterlimit="10"/>
<path d="M400 146V107H445V0" stroke="#FDB913" stroke-opacity="0.2" stroke-width="2" stroke-miterlimit="10"/>
<path d="M395.065 151.393C395.065 154.331 397.446 156.711 400.383 156.711C403.319 156.711 405.701 154.33 405.701 151.393C405.701 148.456 403.319 146.075 400.383 146.075C397.446 146.075 395.065 148.456 395.065 151.393Z" stroke="#FDB913" stroke-opacity="0.2" stroke-width="1.5" stroke-miterlimit="10"/>
<path d="M459.065 167.393C459.065 170.331 461.446 172.711 464.383 172.711C467.32 172.711 469.701 170.33 469.701 167.393C469.701 164.456 467.319 162.075 464.383 162.075C461.446 162.075 459.065 164.456 459.065 167.393Z" stroke="#FDB913" stroke-opacity="0.2" stroke-width="1.5" stroke-miterlimit="10"/>
<path d="M468.149 164.345L604.76 39H695V0" stroke="#FDB913" stroke-opacity="0.2" stroke-width="2" stroke-miterlimit="10"/>
<path d="M492.065 235.393C492.065 238.331 494.446 240.711 497.383 240.711C500.32 240.711 502.701 238.33 502.701 235.393C502.701 232.456 500.319 230.075 497.383 230.075C494.446 230.075 492.065 232.456 492.065 235.393Z" stroke="#FDB913" stroke-opacity="0.2" stroke-width="1.5" stroke-miterlimit="10"/>
<path d="M501.351 232.184L596.8 136H748" stroke="#FDB913" stroke-opacity="0.2" stroke-width="2" stroke-miterlimit="10"/>
<path d="M488.065 367.394C488.065 370.331 490.446 372.711 493.383 372.711C496.32 372.711 498.701 370.33 498.701 367.394C498.701 364.456 496.319 362.076 493.383 362.076C490.446 362.075 488.065 364.456 488.065 367.394Z" stroke="#FDB913" stroke-opacity="0.5" stroke-width="1.5" stroke-miterlimit="10"/>
<path d="M493 362V324H610V177H503V0" stroke="#FDB913" stroke-opacity="0.5" stroke-width="2" stroke-miterlimit="10"/>
<path d="M481 224H548V156H657V68H749" stroke="#FDB913" stroke-opacity="0.5" stroke-width="2" stroke-miterlimit="10"/>
<path d="M470.065 224.393C470.065 227.331 472.446 229.711 475.383 229.711C478.32 229.711 480.701 227.33 480.701 224.393C480.701 221.456 478.319 219.075 475.383 219.075C472.446 219.075 470.065 221.456 470.065 224.393Z" stroke="#FDB913" stroke-opacity="0.5" stroke-width="1.5" stroke-miterlimit="10"/>
<path d="M497.46 197.667L597.133 97H749" stroke="#FDB913" stroke-opacity="0.5" stroke-width="2" stroke-miterlimit="10"/>
<path d="M488.065 201.393C488.065 204.331 490.446 206.711 493.383 206.711C496.32 206.711 498.701 204.33 498.701 201.393C498.701 198.456 496.319 196.075 493.383 196.075C490.446 196.075 488.065 198.456 488.065 201.393Z" stroke="#FDB913" stroke-opacity="0.5" stroke-width="1.5" stroke-miterlimit="10"/>
<path d="M478 106H564V0" stroke="#FDB913" stroke-opacity="0.5" stroke-width="2" stroke-miterlimit="10"/>
<path d="M467.065 106.393C467.065 109.331 469.446 111.711 472.383 111.711C475.32 111.711 477.701 109.33 477.701 106.393C477.701 103.456 475.319 101.075 472.383 101.075C469.446 101.075 467.065 103.456 467.065 106.393Z" stroke="#FDB913" stroke-opacity="0.5" stroke-width="1.5" stroke-miterlimit="10"/>
<path d="M524 139V68H638V0" stroke="#FDB913" stroke-opacity="0.5" stroke-width="2" stroke-miterlimit="10"/>
<path d="M519.065 144.393C519.065 147.331 521.446 149.711 524.383 149.711C527.32 149.711 529.701 147.33 529.701 144.393C529.701 141.456 527.319 139.075 524.383 139.075C521.446 139.075 519.065 141.456 519.065 144.393Z" stroke="#FDB913" stroke-opacity="0.5" stroke-width="1.5" stroke-miterlimit="10"/>
<path d="M749 232H682V116H615" stroke="#FDB913" stroke-opacity="0.5" stroke-width="2" stroke-miterlimit="10"/>
<path d="M604.065 116.393C604.065 119.331 606.446 121.711 609.383 121.711C612.32 121.711 614.701 119.33 614.701 116.393C614.701 113.456 612.319 111.075 609.383 111.075C606.446 111.075 604.065 113.456 604.065 116.393Z" stroke="#FDB913" stroke-opacity="0.5" stroke-width="1.5" stroke-miterlimit="10"/>
<path d="M749 166H706" stroke="#FDB913" stroke-opacity="0.5" stroke-width="2" stroke-miterlimit="10"/>
<path d="M695.065 165.393C695.065 168.331 697.446 170.711 700.383 170.711C703.32 170.711 705.701 168.33 705.701 165.393C705.701 162.456 703.319 160.075 700.383 160.075C697.446 160.075 695.065 162.456 695.065 165.393Z" stroke="#FDB913" stroke-opacity="0.5" stroke-width="1.5" stroke-miterlimit="10"/>
<path d="M748.466 213.068L709.8 195H599.8L567.925 226.749" stroke="#FDB913" stroke-opacity="0.5" stroke-width="2" stroke-miterlimit="10"/>
<path d="M559.065 230.393C559.065 233.331 561.446 235.711 564.383 235.711C567.32 235.711 569.701 233.33 569.701 230.393C569.701 227.456 567.319 225.075 564.383 225.075C561.446 225.075 559.065 227.456 559.065 230.393Z" stroke="#FDB913" stroke-opacity="0.5" stroke-width="1.5" stroke-miterlimit="10"/>
<path d="M400 355V395H445V500" stroke="#FDB913" stroke-opacity="0.2" stroke-width="2" stroke-miterlimit="10"/>
<path d="M395.065 350.754C395.065 347.818 397.446 345.437 400.383 345.437C403.319 345.437 405.701 347.818 405.701 350.754C405.701 353.692 403.319 356.072 400.383 356.072C397.446 356.072 395.065 353.691 395.065 350.754Z" stroke="#FDB913" stroke-opacity="0.2" stroke-width="1.5" stroke-miterlimit="10"/>
<path d="M459.065 334.754C459.065 331.818 461.446 329.437 464.383 329.437C467.32 329.437 469.701 331.818 469.701 334.754C469.701 337.692 467.319 340.072 464.383 340.072C461.446 340.072 459.065 337.691 459.065 334.754Z" stroke="#FDB913" stroke-opacity="0.2" stroke-width="1.5" stroke-miterlimit="10"/>
<path d="M468.149 337.155L604.76 463H695V500" stroke="#FDB913" stroke-opacity="0.2" stroke-width="2" stroke-miterlimit="10"/>
<path d="M492.065 266.754C492.065 263.818 494.446 261.437 497.383 261.437C500.32 261.437 502.701 263.818 502.701 266.754C502.701 269.692 500.319 272.072 497.383 272.072C494.446 272.072 492.065 269.691 492.065 266.754Z" stroke="#FDB913" stroke-opacity="0.2" stroke-width="1.5" stroke-miterlimit="10"/>
<path d="M501.351 269.815L596.8 366H748" stroke="#FDB913" stroke-opacity="0.2" stroke-width="2" stroke-miterlimit="10"/>
<path d="M488.065 123.754C488.065 120.817 490.446 118.436 493.383 118.436C496.32 118.436 498.701 120.817 498.701 123.754C498.701 126.691 496.319 129.072 493.383 129.072C490.446 129.072 488.065 126.691 488.065 123.754Z" stroke="#FDB913" stroke-opacity="0.5" stroke-width="1.5" stroke-miterlimit="10"/>
<path d="M493 129V167H610V335H503V500" stroke="#FDB913" stroke-opacity="0.5" stroke-width="2" stroke-miterlimit="10"/>
<path d="M481 278H548V346H657V434H749" stroke="#FDB913" stroke-opacity="0.5" stroke-width="2" stroke-miterlimit="10"/>
<path d="M470.065 277.754C470.065 274.818 472.446 272.437 475.383 272.437C478.32 272.437 480.701 274.818 480.701 277.754C480.701 280.692 478.319 283.072 475.383 283.072C472.446 283.072 470.065 280.691 470.065 277.754Z" stroke="#FDB913" stroke-opacity="0.5" stroke-width="1.5" stroke-miterlimit="10"/>
<path d="M497.46 304.333L597.133 405H749" stroke="#FDB913" stroke-opacity="0.5" stroke-width="2" stroke-miterlimit="10"/>
<path d="M488.065 300.754C488.065 297.818 490.446 295.437 493.383 295.437C496.32 295.437 498.701 297.818 498.701 300.754C498.701 303.692 496.319 306.072 493.383 306.072C490.446 306.072 488.065 303.691 488.065 300.754Z" stroke="#FDB913" stroke-opacity="0.5" stroke-width="1.5" stroke-miterlimit="10"/>
<path d="M478 396H564V500" stroke="#FDB913" stroke-opacity="0.5" stroke-width="2" stroke-miterlimit="10"/>
<path d="M467.065 395.754C467.065 392.818 469.446 390.437 472.383 390.437C475.32 390.437 477.701 392.818 477.701 395.754C477.701 398.692 475.319 401.072 472.383 401.072C469.446 401.072 467.065 398.691 467.065 395.754Z" stroke="#FDB913" stroke-opacity="0.5" stroke-width="1.5" stroke-miterlimit="10"/>
<path d="M524 362V434H638V500" stroke="#FDB913" stroke-opacity="0.5" stroke-width="2" stroke-miterlimit="10"/>
<path d="M519.065 357.754C519.065 354.818 521.446 352.437 524.383 352.437C527.32 352.437 529.701 354.818 529.701 357.754C529.701 360.692 527.319 363.072 524.383 363.072C521.446 363.072 519.065 360.691 519.065 357.754Z" stroke="#FDB913" stroke-opacity="0.5" stroke-width="1.5" stroke-miterlimit="10"/>
<path d="M749 270H682V386H615" stroke="#FDB913" stroke-opacity="0.5" stroke-width="2" stroke-miterlimit="10"/>
<path d="M604.065 385.754C604.065 382.818 606.446 380.437 609.383 380.437C612.32 380.437 614.701 382.818 614.701 385.754C614.701 388.692 612.319 391.072 609.383 391.072C606.446 391.072 604.065 388.691 604.065 385.754Z" stroke="#FDB913" stroke-opacity="0.5" stroke-width="1.5" stroke-miterlimit="10"/>
<path d="M749 336H706" stroke="#FDB913" stroke-opacity="0.5" stroke-width="2" stroke-miterlimit="10"/>
<path d="M695.065 336.754C695.065 333.818 697.446 331.437 700.383 331.437C703.32 331.437 705.701 333.818 705.701 336.754C705.701 339.692 703.319 342.072 700.383 342.072C697.446 342.072 695.065 339.691 695.065 336.754Z" stroke="#FDB913" stroke-opacity="0.5" stroke-width="1.5" stroke-miterlimit="10"/>
<path d="M748.466 289.006L709.8 307H599.8L567.925 275.287" stroke="#FDB913" stroke-opacity="0.5" stroke-width="2" stroke-miterlimit="10"/>
<path d="M559.065 271.754C559.065 268.818 561.446 266.437 564.383 266.437C567.32 266.437 569.701 268.818 569.701 271.754C569.701 274.692 567.319 277.072 564.383 277.072C561.446 277.072 559.065 274.691 559.065 271.754Z" stroke="#FDB913" stroke-opacity="0.5" stroke-width="1.5" stroke-miterlimit="10"/>
<rect x="227.5" y="102.5" width="295" height="295" rx="13.5" fill="#FEEAB8"/>
<rect x="227.5" y="102.5" width="295" height="295" rx="13.5" stroke="white" stroke-width="5"/>
<rect x="240" y="115" width="270" height="270" stroke="white" stroke-width="6"/>
<rect x="249.5" y="124.5" width="252" height="33" stroke="white" stroke-width="3"/>
<rect x="249.5" y="169.5" width="252" height="68" stroke="white" stroke-width="3"/>
<rect x="249.5" y="251.5" width="124" height="121" stroke="white" stroke-width="3"/>
<rect x="450.5" y="251.5" width="51" height="54" stroke="white" stroke-width="3"/>
<rect x="450.5" y="320.5" width="51" height="52" stroke="white" stroke-width="3"/>
<rect x="387.5" y="251.5" width="51" height="121" stroke="white" stroke-width="3"/>
<path d="M259.025 131.006C259.156 131.006 259.286 131.006 259.417 131.006C261.063 131.006 262.71 131.012 264.356 131C264.639 130.998 264.835 131.092 265.025 131.288C265.886 132.177 266.758 133.054 267.626 133.935C267.648 133.958 267.674 133.977 267.747 134.04C267.942 133.833 268.133 133.624 268.33 133.422C269.07 132.667 269.809 131.912 270.557 131.164C270.635 131.085 270.768 131.015 270.877 131.014C272.672 131.007 274.467 131.011 276.262 131.014C276.31 131.014 276.357 131.024 276.487 131.04C274.514 133.042 272.582 135.004 270.628 136.988C272.565 138.958 274.497 140.922 276.48 142.938C276.331 142.956 276.25 142.974 276.169 142.974C274.431 142.977 272.694 142.975 270.957 142.984C270.717 142.985 270.58 142.85 270.436 142.703C269.586 141.838 268.735 140.975 267.883 140.111C267.838 140.064 267.788 140.022 267.726 139.964C267.647 140.037 267.567 140.105 267.494 140.179C266.629 141.052 265.769 141.929 264.896 142.795C264.803 142.887 264.645 142.967 264.516 142.968C262.779 142.979 261.041 142.976 259.305 142.975C259.226 142.975 259.146 142.966 259.041 142.924C260.926 140.912 262.877 138.972 264.813 136.987C262.866 135.009 260.934 133.043 259 131.078C259.008 131.054 259.017 131.03 259.025 131.006Z" fill="white"/>
<path d="M267.731 151C264.943 151 262.155 151 259.367 151C259.013 151 259.012 150.999 259.012 150.652C259.012 149.531 259.017 148.41 259.008 147.289C259.005 147.057 259.079 146.98 259.318 146.98C264.878 146.983 270.437 146.979 275.997 146.976C276.055 146.976 276.113 146.983 276.17 146.98C276.373 146.969 276.441 147.061 276.44 147.259C276.433 148.323 276.437 149.388 276.437 150.452C276.437 150.817 276.248 151 275.872 151C273.159 151 270.445 151 267.731 151Z" fill="#FFAF00"/>
<path d="M305.822 151L303.974 147.248H293.222L291.374 151H285.382L295.518 131.4H301.762L311.898 151H305.822ZM295.182 143.188H301.986L298.598 136.244L295.182 143.188ZM319.779 151H314.067V131.4H319.779V151ZM343.1 146.996C345.732 146.996 347.748 146.1 349.12 144L354.02 146.52C352.2 149.404 348.252 151.644 342.96 151.644C335.568 151.644 330.584 147.808 330.584 141.2C330.584 134.592 335.568 130.756 343.184 130.756C348.252 130.756 352.172 133.052 353.936 135.852L349.008 138.372C347.72 136.356 345.732 135.404 343.1 135.404C339.068 135.404 336.38 137.448 336.38 141.2C336.38 144.952 339.068 146.996 343.1 146.996ZM365.764 151.644C359.52 151.644 355.6 148.424 355.6 143.244C355.6 138.036 359.52 134.872 365.764 134.872C371.98 134.872 375.9 138.036 375.9 143.244C375.9 148.424 371.98 151.644 365.764 151.644ZM365.764 147.388C368.592 147.388 370.636 145.96 370.636 143.244C370.636 140.5 368.592 139.1 365.764 139.1C362.936 139.1 360.892 140.5 360.892 143.244C360.892 145.96 362.936 147.388 365.764 147.388ZM384.408 151H378.892V135.488H384.408V138.372C385.696 136.188 388.132 135.124 390.904 135.124V139.716C387.6 139.716 385.22 140.976 384.408 143.524V151ZM397.286 144.42C397.734 146.772 399.61 147.724 402.746 147.724C405.21 147.724 406.694 147.136 408.234 145.96L411.034 148.9C408.822 150.86 405.966 151.644 402.438 151.644C395.858 151.644 392.022 148.452 392.022 143.244C392.022 138.036 395.802 134.844 402.018 134.844C407.618 134.844 411.594 137.644 411.594 143.132C411.594 143.748 411.566 144.112 411.454 144.42H397.286ZM402.074 138.708C399.694 138.708 398.042 139.576 397.426 141.452L406.498 141.396C405.91 139.576 404.426 138.708 402.074 138.708Z" fill="white"/>
<line x1="311.5" y1="250" x2="311.5" y2="239" stroke="white" stroke-width="3"/>
<line x1="375" y1="310.5" x2="386" y2="310.5" stroke="white" stroke-width="3"/>
<line x1="440" y1="278.5" x2="451" y2="278.5" stroke="white" stroke-width="3"/>
<line x1="440" y1="344.5" x2="451" y2="344.5" stroke="white" stroke-width="3"/>
<line x1="477.5" y1="250" x2="477.5" y2="239" stroke="white" stroke-width="3"/>
<line x1="413.5" y1="250" x2="413.5" y2="239" stroke="white" stroke-width="3"/>
<line x1="477.5" y1="307" x2="477.5" y2="319" stroke="white" stroke-width="3"/>
<path d="M323.697 204.742L321.318 198.303L318.926 204.742H323.697ZM325.092 208.379H317.531L315.85 213H311.365L319.076 193.395H323.547L331.258 213H326.773L325.092 208.379ZM334.061 213V193.395H338.271V213H334.061ZM359.135 204.742L356.756 198.303L354.363 204.742H359.135ZM360.529 208.379H352.969L351.287 213H346.803L354.514 193.395H358.984L366.695 213H362.211L360.529 208.379ZM378.043 211.879V210.771C378.002 210.826 377.947 210.895 377.865 210.977C377.783 211.059 377.619 211.223 377.373 211.441C377.127 211.66 376.854 211.865 376.566 212.043C376.279 212.221 375.896 212.385 375.432 212.521C374.967 212.658 374.475 212.74 373.982 212.74C372.41 212.74 370.988 212.057 369.717 210.689C368.445 209.322 367.816 207.723 367.816 205.877C367.816 204.018 368.445 202.418 369.717 201.051C370.988 199.684 372.41 199.014 373.982 199.014C374.762 199.014 375.5 199.178 376.184 199.506C376.867 199.834 377.346 200.148 377.619 200.463L378.043 200.969V199.287H381.816V211.893C381.816 213.861 381.119 215.529 379.738 216.869C378.357 218.209 376.621 218.893 374.543 218.893C373.75 218.893 372.998 218.783 372.287 218.578C371.562 218.373 370.961 218.127 370.482 217.854C370.018 217.58 369.594 217.293 369.238 217.006C368.883 216.705 368.637 216.459 368.486 216.268L368.227 215.953L370.605 213.711C370.701 213.834 370.838 213.998 371.029 214.217C371.221 214.422 371.645 214.695 372.301 215.023C372.957 215.352 373.654 215.516 374.406 215.516C375.527 215.516 376.402 215.201 377.059 214.545C377.715 213.889 378.043 213 378.043 211.879ZM371.74 205.863C371.74 206.834 372.027 207.641 372.629 208.283C373.23 208.912 373.955 209.24 374.816 209.24C375.678 209.24 376.43 208.912 377.072 208.256C377.715 207.6 378.043 206.793 378.043 205.863C378.043 204.934 377.715 204.141 377.072 203.484C376.43 202.828 375.678 202.514 374.816 202.514C373.955 202.514 373.23 202.828 372.629 203.457C372.027 204.086 371.74 204.893 371.74 205.863ZM398.469 207.395H388.529C388.666 208.146 389.062 208.775 389.719 209.295C390.361 209.814 391.182 210.061 392.166 210.061C392.877 210.061 393.533 209.924 394.135 209.65C394.736 209.377 395.174 209.09 395.42 208.803L395.816 208.379L397.771 210.895L397.512 211.154C397.402 211.264 397.156 211.455 396.787 211.729C396.404 212.002 396.008 212.248 395.598 212.467C395.174 212.686 394.627 212.863 393.957 213.027C393.287 213.191 392.604 213.273 391.893 213.273C389.869 213.273 388.16 212.576 386.738 211.182C385.316 209.787 384.605 208.105 384.605 206.137C384.605 204.182 385.303 202.5 386.711 201.105C388.105 199.711 389.787 199 391.756 199C393.711 199 395.338 199.656 396.65 200.969C397.949 202.281 398.605 203.908 398.605 205.863L398.469 207.395ZM391.756 202.227C390.949 202.227 390.266 202.459 389.705 202.924C389.145 203.389 388.748 204.004 388.529 204.742H394.832C394.682 204.018 394.326 203.416 393.779 202.938C393.232 202.473 392.549 202.227 391.756 202.227ZM405.195 199.273L405.182 200.969C405.291 200.818 405.455 200.641 405.646 200.422C405.852 200.203 406.289 199.916 406.973 199.547C407.656 199.191 408.367 199 409.105 199C410.678 199 411.963 199.547 412.947 200.627C413.932 201.721 414.424 203.184 414.424 205.016V213H410.65V205.439C410.65 204.605 410.404 203.936 409.912 203.416C409.42 202.896 408.777 202.637 407.998 202.637C407.137 202.637 406.453 202.924 405.947 203.484C405.441 204.045 405.195 204.838 405.195 205.863V213H401.422V199.273H405.195ZM419.756 197.742V195.227H423.119V199.561H425.908V202.924H423.119V208.379C423.119 208.816 423.27 209.172 423.584 209.473C423.898 209.773 424.295 209.924 424.787 209.924C425.033 209.924 425.266 209.91 425.498 209.855C425.73 209.801 425.908 209.746 426.031 209.691L426.195 209.637V212.863C425.443 213.15 424.596 213.287 423.666 213.273C420.768 213.273 419.332 211.688 419.332 208.516V202.924H416.953V199.561H418.211C418.635 199.561 419.004 199.396 419.305 199.055C419.605 198.727 419.756 198.289 419.756 197.742ZM438.363 201.105L436.408 203.334C436.354 203.266 436.258 203.17 436.135 203.033C436.012 202.91 435.752 202.746 435.369 202.541C434.973 202.336 434.576 202.227 434.166 202.227C433.646 202.227 433.236 202.35 432.936 202.568C432.635 202.787 432.484 203.047 432.484 203.334C432.484 203.689 432.689 203.99 433.127 204.223C433.551 204.469 434.07 204.674 434.686 204.865C435.301 205.057 435.93 205.275 436.559 205.535C437.188 205.795 437.707 206.219 438.145 206.793C438.568 207.367 438.787 208.092 438.787 208.939C438.787 210.17 438.295 211.209 437.324 212.029C436.354 212.863 435.027 213.273 433.332 213.273C432.594 213.273 431.91 213.191 431.254 213.014C430.598 212.85 430.064 212.631 429.654 212.385C429.244 212.139 428.875 211.906 428.574 211.66C428.273 211.414 428.055 211.209 427.918 211.045L427.727 210.758L429.832 208.666C429.9 208.775 430.01 208.926 430.174 209.09C430.338 209.254 430.666 209.486 431.186 209.773C431.691 210.061 432.225 210.197 432.771 210.197C433.373 210.197 433.824 210.088 434.125 209.855C434.426 209.623 434.59 209.322 434.59 208.939C434.59 208.57 434.371 208.256 433.947 208.01C433.51 207.764 432.99 207.545 432.361 207.354C431.732 207.162 431.104 206.943 430.488 206.67C429.873 206.41 429.354 206 428.93 205.439C428.492 204.893 428.287 204.182 428.287 203.334C428.287 202.24 428.793 201.242 429.818 200.34C430.844 199.451 432.102 199 433.605 199C434.549 199 435.424 199.178 436.217 199.533C437.01 199.889 437.57 200.244 437.885 200.572L438.363 201.105Z" fill="white"/>
<path d="M291.916 322H278.613V302.395H282.824V318.227H291.916V322ZM308.432 322H295.129V302.395H299.34V318.227H308.432V322ZM322.145 310.939L328.926 302.395H332.645V322H328.447V308.93L322.145 316.955L315.855 308.984V322H311.645V302.395H315.432L322.145 310.939ZM346.357 310.105L344.402 312.334C344.348 312.266 344.252 312.17 344.129 312.033C344.006 311.91 343.746 311.746 343.363 311.541C342.967 311.336 342.57 311.227 342.16 311.227C341.641 311.227 341.23 311.35 340.93 311.568C340.629 311.787 340.479 312.047 340.479 312.334C340.479 312.689 340.684 312.99 341.121 313.223C341.545 313.469 342.064 313.674 342.68 313.865C343.295 314.057 343.924 314.275 344.553 314.535C345.182 314.795 345.701 315.219 346.139 315.793C346.562 316.367 346.781 317.092 346.781 317.939C346.781 319.17 346.289 320.209 345.318 321.029C344.348 321.863 343.021 322.273 341.326 322.273C340.588 322.273 339.904 322.191 339.248 322.014C338.592 321.85 338.059 321.631 337.648 321.385C337.238 321.139 336.869 320.906 336.568 320.66C336.268 320.414 336.049 320.209 335.912 320.045L335.721 319.758L337.826 317.666C337.895 317.775 338.004 317.926 338.168 318.09C338.332 318.254 338.66 318.486 339.18 318.773C339.686 319.061 340.219 319.197 340.766 319.197C341.367 319.197 341.818 319.088 342.119 318.855C342.42 318.623 342.584 318.322 342.584 317.939C342.584 317.57 342.365 317.256 341.941 317.01C341.504 316.764 340.984 316.545 340.355 316.354C339.727 316.162 339.098 315.943 338.482 315.67C337.867 315.41 337.348 315 336.924 314.439C336.486 313.893 336.281 313.182 336.281 312.334C336.281 311.24 336.787 310.242 337.812 309.34C338.838 308.451 340.096 308 341.6 308C342.543 308 343.418 308.178 344.211 308.533C345.004 308.889 345.564 309.244 345.879 309.572L346.357 310.105Z" fill="white"/>
<path d="M475.682 297.288V293.439H479.318C479.366 293.48 479.435 293.535 479.523 293.617C479.612 293.699 479.763 293.87 479.981 294.144C480.2 294.417 480.392 294.704 480.556 295.005C480.72 295.306 480.87 295.702 481.007 296.194C481.144 296.687 481.212 297.186 481.212 297.705C481.212 299.202 480.713 300.467 479.715 301.492C478.717 302.518 477.507 303.03 476.099 303.03C474.69 303.03 473.487 302.518 472.489 301.492C471.491 300.467 470.992 299.202 470.992 297.705C470.992 297.192 471.061 296.7 471.197 296.235C471.334 295.771 471.491 295.395 471.683 295.094C471.874 294.793 472.065 294.533 472.257 294.301C472.448 294.068 472.612 293.904 472.742 293.802L472.947 293.645L474.28 294.978C474.246 295.005 474.198 295.046 474.13 295.094C474.062 295.142 473.952 295.251 473.788 295.415C473.631 295.579 473.494 295.764 473.371 295.955C473.248 296.153 473.139 296.413 473.036 296.728C472.934 297.049 472.879 297.377 472.879 297.705C472.879 298.621 473.187 299.387 473.802 300.002C474.417 300.617 475.183 300.925 476.099 300.925C477.015 300.925 477.78 300.617 478.396 300.002C479.011 299.387 479.318 298.621 479.318 297.705C479.318 297.268 479.257 296.871 479.127 296.509C478.997 296.153 478.867 295.9 478.73 295.75L478.553 295.538H477.22V297.288H475.682ZM481 286.932H480.303C480.371 286.986 480.446 287.068 480.542 287.164C480.638 287.267 480.761 287.485 480.911 287.827C481.062 288.169 481.137 288.524 481.137 288.894C481.137 289.68 480.877 290.322 480.351 290.814C479.824 291.307 479.12 291.553 478.245 291.553H474.137V289.666H478.061C478.443 289.666 478.765 289.543 479.011 289.29C479.264 289.037 479.387 288.716 479.387 288.333C479.387 287.909 479.25 287.567 478.97 287.314C478.696 287.062 478.3 286.932 477.78 286.932H474.137V285.045H481V286.932ZM481 279.378L480.303 279.385C480.371 279.439 480.446 279.515 480.542 279.61C480.638 279.706 480.761 279.925 480.911 280.253C481.062 280.581 481.137 280.923 481.137 281.278C481.137 281.962 480.952 282.516 480.569 282.946C480.187 283.37 479.729 283.589 479.182 283.589C478.621 283.589 478.156 283.404 477.78 283.049C477.411 282.687 477.165 282.188 477.049 281.559L476.659 279.385C476.372 279.385 476.14 279.487 475.955 279.699C475.777 279.904 475.682 280.198 475.682 280.574C475.682 280.882 475.743 281.162 475.859 281.422C475.976 281.675 476.092 281.853 476.215 281.962L476.379 282.119L475.333 283.165C475.299 283.138 475.251 283.097 475.189 283.049C475.128 283.001 475.019 282.892 474.868 282.728C474.718 282.563 474.588 282.379 474.472 282.188C474.355 281.989 474.246 281.729 474.15 281.415C474.055 281.094 474 280.766 474 280.431C474 279.569 474.26 278.858 474.779 278.312C475.299 277.765 475.948 277.491 476.728 277.491H481V279.378ZM479.599 280.786C479.599 280.355 479.469 280.014 479.195 279.761C478.922 279.508 478.546 279.385 478.061 279.385H477.849L478.129 280.923C478.211 281.436 478.471 281.695 478.901 281.695C479.366 281.695 479.599 281.388 479.599 280.786ZM474.068 271.537L475.969 271.544C475.921 271.681 475.894 271.893 475.887 272.173C475.887 272.665 476.044 273.062 476.358 273.349C476.673 273.636 477.124 273.786 477.712 273.786H481V275.673H474.137V273.786H474.978C474.916 273.731 474.834 273.649 474.731 273.554C474.629 273.451 474.492 273.232 474.321 272.891C474.157 272.549 474.068 272.193 474.068 271.817V271.537ZM474 267.613C474 267.224 474.089 266.861 474.253 266.52C474.417 266.178 474.574 265.938 474.731 265.795L474.984 265.583H471.204V263.696H481.007V265.583H480.166C480.193 265.604 480.228 265.631 480.269 265.672C480.31 265.713 480.392 265.795 480.501 265.918C480.61 266.041 480.713 266.178 480.802 266.321C480.891 266.472 480.966 266.656 481.034 266.889C481.103 267.121 481.137 267.367 481.137 267.613C481.137 268.502 480.795 269.274 480.104 269.931C479.414 270.587 478.566 270.908 477.568 270.908C476.57 270.908 475.729 270.587 475.039 269.931C474.349 269.274 474 268.502 474 267.613ZM479.469 267.271C479.469 266.807 479.291 266.41 478.936 266.082C478.58 265.754 478.122 265.59 477.575 265.59C477.021 265.59 476.57 265.754 476.215 266.082C475.859 266.41 475.682 266.807 475.682 267.271C475.682 267.736 475.859 268.133 476.215 268.461C476.57 268.789 477.021 268.953 477.575 268.953C478.122 268.953 478.58 268.789 478.936 268.461C479.291 268.133 479.469 267.736 479.469 267.271ZM475.053 257.045L476.167 258.022C476.133 258.05 476.085 258.098 476.017 258.159C475.955 258.221 475.873 258.351 475.771 258.542C475.668 258.74 475.613 258.938 475.613 259.144C475.613 259.403 475.675 259.608 475.784 259.759C475.894 259.909 476.023 259.984 476.167 259.984C476.345 259.984 476.495 259.882 476.611 259.663C476.734 259.451 476.837 259.191 476.933 258.884C477.028 258.576 477.138 258.262 477.268 257.947C477.397 257.633 477.609 257.373 477.896 257.154C478.184 256.942 478.546 256.833 478.97 256.833C479.585 256.833 480.104 257.079 480.515 257.564C480.932 258.05 481.137 258.713 481.137 259.561C481.137 259.93 481.096 260.271 481.007 260.6C480.925 260.928 480.815 261.194 480.692 261.399C480.569 261.604 480.453 261.789 480.33 261.939C480.207 262.09 480.104 262.199 480.022 262.268L479.879 262.363L478.833 261.311C478.888 261.276 478.963 261.222 479.045 261.14C479.127 261.058 479.243 260.894 479.387 260.634C479.53 260.381 479.599 260.114 479.599 259.841C479.599 259.54 479.544 259.314 479.428 259.164C479.312 259.014 479.161 258.932 478.97 258.932C478.785 258.932 478.628 259.041 478.505 259.253C478.382 259.472 478.272 259.731 478.177 260.046C478.081 260.36 477.972 260.675 477.835 260.982C477.705 261.29 477.5 261.55 477.22 261.762C476.946 261.98 476.591 262.083 476.167 262.083C475.62 262.083 475.121 261.83 474.67 261.317C474.226 260.805 474 260.176 474 259.424C474 258.952 474.089 258.515 474.267 258.118C474.444 257.722 474.622 257.441 474.786 257.284L475.053 257.045Z" fill="white"/>
<path d="M475.805 367.516C476.578 367.516 477.234 367.258 477.762 366.73C478.295 366.209 478.559 365.57 478.559 364.82C478.559 364.07 478.295 363.432 477.762 362.91C477.234 362.383 476.578 362.125 475.805 362.125C475.031 362.125 474.375 362.383 473.842 362.91C473.309 363.432 473.039 364.07 473.039 364.82C473.039 365.57 473.309 366.209 473.842 366.73C474.375 367.258 475.031 367.516 475.805 367.516ZM475.799 369.379C474.592 369.379 473.561 368.939 472.705 368.061C471.85 367.182 471.422 366.098 471.422 364.82C471.422 363.543 471.85 362.459 472.705 361.58C473.561 360.701 474.592 360.262 475.799 360.262C477.006 360.262 478.043 360.701 478.898 361.58C479.754 362.459 480.182 363.543 480.182 364.82C480.182 366.098 479.754 367.182 478.898 368.061C478.043 368.939 477.006 369.379 475.799 369.379ZM474 355.51C474 354.748 474.299 354.092 474.891 353.529C475.482 352.973 476.203 352.691 477.059 352.691C477.914 352.691 478.641 352.973 479.232 353.535C479.824 354.098 480.117 354.754 480.117 355.51C480.117 355.85 480.053 356.16 479.912 356.453C479.771 356.746 479.637 356.957 479.496 357.074L479.279 357.25H480V358.873H471.598V357.25H474.838C474.814 357.238 474.785 357.215 474.75 357.18C474.715 357.15 474.65 357.08 474.557 356.975C474.463 356.869 474.375 356.752 474.299 356.623C474.223 356.5 474.152 356.336 474.094 356.137C474.035 355.938 474 355.727 474 355.51ZM478.682 355.814C478.682 355.416 478.529 355.076 478.225 354.795C477.92 354.514 477.533 354.373 477.059 354.373C476.59 354.373 476.203 354.514 475.898 354.795C475.594 355.076 475.441 355.416 475.441 355.814C475.441 356.213 475.594 356.553 475.898 356.834C476.203 357.115 476.59 357.25 477.059 357.25C477.533 357.25 477.92 357.115 478.225 356.834C478.529 356.553 478.682 356.213 478.682 355.814ZM474.902 347.412L475.857 348.25C475.828 348.273 475.787 348.314 475.729 348.367C475.676 348.42 475.605 348.531 475.518 348.695C475.43 348.865 475.383 349.035 475.383 349.211C475.383 349.434 475.436 349.609 475.529 349.738C475.623 349.867 475.734 349.932 475.857 349.932C476.01 349.932 476.139 349.844 476.238 349.656C476.344 349.475 476.432 349.252 476.514 348.988C476.596 348.725 476.689 348.455 476.801 348.186C476.912 347.916 477.094 347.693 477.34 347.506C477.586 347.324 477.896 347.23 478.26 347.23C478.787 347.23 479.232 347.441 479.584 347.857C479.941 348.273 480.117 348.842 480.117 349.568C480.117 349.885 480.082 350.178 480.006 350.459C479.936 350.74 479.842 350.969 479.736 351.145C479.631 351.32 479.531 351.479 479.426 351.607C479.32 351.736 479.232 351.83 479.162 351.889L479.039 351.971L478.143 351.068C478.189 351.039 478.254 350.992 478.324 350.922C478.395 350.852 478.494 350.711 478.617 350.488C478.74 350.271 478.799 350.043 478.799 349.809C478.799 349.551 478.752 349.357 478.652 349.229C478.553 349.1 478.424 349.029 478.26 349.029C478.102 349.029 477.967 349.123 477.861 349.305C477.756 349.492 477.662 349.715 477.58 349.984C477.498 350.254 477.404 350.523 477.287 350.787C477.176 351.051 477 351.273 476.76 351.455C476.525 351.643 476.221 351.73 475.857 351.73C475.389 351.73 474.961 351.514 474.574 351.074C474.193 350.635 474 350.096 474 349.451C474 349.047 474.076 348.672 474.229 348.332C474.381 347.992 474.533 347.752 474.674 347.617L474.902 347.412ZM477.598 340.451V344.711C477.92 344.652 478.189 344.482 478.412 344.201C478.635 343.926 478.74 343.574 478.74 343.152C478.74 342.848 478.682 342.566 478.564 342.309C478.447 342.051 478.324 341.863 478.201 341.758L478.02 341.588L479.098 340.75L479.209 340.861C479.256 340.908 479.338 341.014 479.455 341.172C479.572 341.336 479.678 341.506 479.771 341.682C479.865 341.863 479.941 342.098 480.012 342.385C480.082 342.672 480.117 342.965 480.117 343.27C480.117 344.137 479.818 344.869 479.221 345.479C478.623 346.088 477.902 346.393 477.059 346.393C476.221 346.393 475.5 346.094 474.902 345.49C474.305 344.893 474 344.172 474 343.328C474 342.49 474.281 341.793 474.844 341.23C475.406 340.674 476.104 340.393 476.941 340.393L477.598 340.451ZM475.383 343.328C475.383 343.674 475.482 343.967 475.682 344.207C475.881 344.447 476.145 344.617 476.461 344.711V342.01C476.15 342.074 475.893 342.227 475.688 342.461C475.488 342.695 475.383 342.988 475.383 343.328ZM474.059 335.646L475.688 335.652C475.646 335.77 475.623 335.951 475.617 336.191C475.617 336.613 475.752 336.953 476.021 337.199C476.291 337.445 476.678 337.574 477.182 337.574H480V339.191H474.117V337.574H474.838C474.785 337.527 474.715 337.457 474.627 337.375C474.539 337.287 474.422 337.1 474.275 336.807C474.135 336.514 474.059 336.209 474.059 335.887V335.646ZM480 331.199V332.881L474.117 335.102V333.42L478.02 332.043L474.117 330.66V328.984L480 331.199ZM477.598 322.568V326.828C477.92 326.77 478.189 326.6 478.412 326.318C478.635 326.043 478.74 325.691 478.74 325.27C478.74 324.965 478.682 324.684 478.564 324.426C478.447 324.168 478.324 323.98 478.201 323.875L478.02 323.705L479.098 322.867L479.209 322.979C479.256 323.025 479.338 323.131 479.455 323.289C479.572 323.453 479.678 323.623 479.771 323.799C479.865 323.98 479.941 324.215 480.012 324.502C480.082 324.789 480.117 325.082 480.117 325.387C480.117 326.254 479.818 326.986 479.221 327.596C478.623 328.205 477.902 328.51 477.059 328.51C476.221 328.51 475.5 328.211 474.902 327.607C474.305 327.01 474 326.289 474 325.445C474 324.607 474.281 323.91 474.844 323.348C475.406 322.791 476.104 322.51 476.941 322.51L477.598 322.568ZM475.383 325.445C475.383 325.791 475.482 326.084 475.682 326.324C475.881 326.564 476.145 326.734 476.461 326.828V324.127C476.15 324.191 475.893 324.344 475.688 324.578C475.488 324.812 475.383 325.105 475.383 325.445Z" fill="white"/>
<path d="M402.984 353.502C402.984 352.477 403.121 351.492 403.395 350.562C403.668 349.633 403.982 348.881 404.365 348.279C404.748 347.678 405.131 347.158 405.514 346.693C405.896 346.229 406.225 345.9 406.484 345.695L406.895 345.381L409.561 348.047C409.492 348.102 409.396 348.184 409.26 348.279C409.123 348.375 408.904 348.594 408.576 348.922C408.262 349.25 407.988 349.619 407.742 350.002C407.496 350.398 407.277 350.918 407.072 351.547C406.867 352.189 406.758 352.846 406.758 353.502C406.758 355.334 407.373 356.865 408.604 358.096C409.834 359.326 411.365 359.941 413.197 359.941C415.029 359.941 416.561 359.326 417.791 358.096C419.021 356.865 419.637 355.334 419.637 353.502C419.637 352.791 419.541 352.121 419.35 351.465C419.158 350.809 418.926 350.275 418.652 349.838C418.379 349.414 418.105 349.031 417.832 348.703C417.559 348.375 417.326 348.143 417.121 347.992L416.834 347.773L419.5 345.244C419.609 345.326 419.76 345.436 419.938 345.586C420.115 345.736 420.43 346.064 420.881 346.584C421.332 347.104 421.729 347.65 422.07 348.238C422.412 348.826 422.727 349.592 423 350.549C423.287 351.506 423.424 352.49 423.424 353.502C423.424 356.496 422.426 359.025 420.43 361.076C418.434 363.127 416.014 364.152 413.197 364.152C410.381 364.152 407.975 363.127 405.979 361.076C403.982 359.025 402.984 356.496 402.984 353.502ZM416.15 339.652C417.176 339.652 418.037 339.324 418.734 338.654C419.432 337.998 419.773 337.205 419.773 336.289C419.773 335.387 419.432 334.594 418.734 333.924C418.037 333.268 417.176 332.926 416.15 332.926C415.125 332.926 414.264 333.268 413.553 333.924C412.855 334.594 412.5 335.387 412.5 336.289C412.5 337.205 412.855 337.998 413.553 338.654C414.264 339.324 415.125 339.652 416.15 339.652ZM416.137 329.016C418.051 329.016 419.719 329.74 421.141 331.189C422.562 332.639 423.273 334.334 423.273 336.289C423.273 338.258 422.562 339.953 421.141 341.402C419.719 342.852 418.051 343.576 416.137 343.576C414.236 343.576 412.568 342.852 411.146 341.402C409.725 339.953 409.014 338.258 409.014 336.289C409.014 334.334 409.725 332.639 411.146 331.189C412.568 329.74 414.236 329.016 416.137 329.016ZM409.273 322.439L410.969 322.453C410.818 322.344 410.641 322.18 410.422 321.988C410.203 321.783 409.916 321.346 409.547 320.662C409.191 319.979 409 319.268 409 318.529C409 316.957 409.547 315.672 410.627 314.688C411.721 313.703 413.184 313.211 415.016 313.211H423V316.984H415.439C414.605 316.984 413.936 317.23 413.416 317.723C412.896 318.215 412.637 318.857 412.637 319.637C412.637 320.498 412.924 321.182 413.484 321.688C414.045 322.193 414.838 322.439 415.863 322.439H423V326.213H409.273V322.439ZM407.742 307.879H405.227V304.516H409.561V301.727H412.924V304.516H418.379C418.816 304.516 419.172 304.365 419.473 304.051C419.773 303.736 419.924 303.34 419.924 302.848C419.924 302.602 419.91 302.369 419.855 302.137C419.801 301.904 419.746 301.727 419.691 301.604L419.637 301.439H422.863C423.15 302.191 423.287 303.039 423.273 303.969C423.273 306.867 421.688 308.303 418.516 308.303H412.924V310.682H409.561V309.424C409.561 309 409.396 308.631 409.055 308.33C408.727 308.029 408.289 307.879 407.742 307.879ZM417.395 286.346V296.285C418.146 296.148 418.775 295.752 419.295 295.096C419.814 294.453 420.061 293.633 420.061 292.648C420.061 291.938 419.924 291.281 419.65 290.68C419.377 290.078 419.09 289.641 418.803 289.395L418.379 288.998L420.895 287.043L421.154 287.303C421.264 287.412 421.455 287.658 421.729 288.027C422.002 288.41 422.248 288.807 422.467 289.217C422.686 289.641 422.863 290.188 423.027 290.857C423.191 291.527 423.273 292.211 423.273 292.922C423.273 294.945 422.576 296.654 421.182 298.076C419.787 299.498 418.105 300.209 416.137 300.209C414.182 300.209 412.5 299.512 411.105 298.104C409.711 296.709 409 295.027 409 293.059C409 291.104 409.656 289.477 410.969 288.164C412.281 286.865 413.908 286.209 415.863 286.209L417.395 286.346ZM412.227 293.059C412.227 293.865 412.459 294.549 412.924 295.109C413.389 295.67 414.004 296.066 414.742 296.285V289.982C414.018 290.133 413.416 290.488 412.938 291.035C412.473 291.582 412.227 292.266 412.227 293.059ZM418.666 278.074L423 281.014V285.074L416 280.453L409.273 284.801V280.59L413.334 278.074L409.273 275.559V271.348L416 275.695L423 271.074V275.135L418.666 278.074ZM407.742 267.438H405.227V264.074H409.561V261.285H412.924V264.074H418.379C418.816 264.074 419.172 263.924 419.473 263.609C419.773 263.295 419.924 262.898 419.924 262.406C419.924 262.16 419.91 261.928 419.855 261.695C419.801 261.463 419.746 261.285 419.691 261.162L419.637 260.998H422.863C423.15 261.75 423.287 262.598 423.273 263.527C423.273 266.426 421.688 267.861 418.516 267.861H412.924V270.24H409.561V268.982C409.561 268.559 409.396 268.189 409.055 267.889C408.727 267.588 408.289 267.438 407.742 267.438Z" fill="white"/>
</g>
<defs>
<clipPath id="clip0_244_12283">
<rect width="750" height="500" fill="white"/>
</clipPath>
</defs>
</svg>
